<svg data-v-423bf9ae="" xmlns="http://www.w3.org/2000/svg" viewBox="0 0 771 90" class="iconLeftSlogan"><!----><!----><!----><g data-v-423bf9ae="" id="dd1b73b3-e932-43b1-87d2-c592ed7e8f99" fill="black" transform="matrix(4.4977510729908285,0,0,4.4977510729908285,88.57561418104416,-6.746626609486242)"><path d="M10.67 3.88L10.67 3.88L9.86 4.48L9.86 4.48Q9.21 3.62 8.28 3.18L8.28 3.18L8.28 3.18Q7.36 2.73 6.25 2.73L6.25 2.73L6.25 2.73Q5.03 2.73 4.00 3.32L4.00 3.32L4.00 3.32Q2.97 3.90 2.40 4.88L2.40 4.88L2.40 4.88Q1.83 5.86 1.83 7.09L1.83 7.09L1.83 7.09Q1.83 8.94 3.10 10.07L3.10 10.07L3.10 10.07Q4.37 11.20 6.30 11.20L6.30 11.20L6.30 11.20Q8.44 11.20 9.86 9.54L9.86 9.54L10.67 10.14L10.67 10.14Q9.91 11.11 8.78 11.63L8.78 11.63L8.78 11.63Q7.64 12.16 6.25 12.16L6.25 12.16L6.25 12.16Q3.58 12.16 2.04 10.39L2.04 10.39L2.04 10.39Q0.76 8.89 0.76 7L0.76 7L0.76 7Q0.76 4.78 2.32 3.25L2.32 3.25L2.32 3.25Q3.88 1.73 6.23 1.73L6.23 1.73L6.23 1.73Q7.65 1.73 8.79 2.29L8.79 2.29L8.79 2.29Q9.94 2.86 10.67 3.88ZM16.08 4.22L16.08 4.22L16.08 4.22Q17.81 4.22 18.95 5.47L18.95 5.47L18.95 5.47Q19.98 6.62 19.98 8.18L19.98 8.18L19.98 8.18Q19.98 9.75 18.89 10.92L18.89 10.92L18.89 10.92Q17.79 12.09 16.08 12.09L16.08 12.09L16.08 12.09Q14.36 12.09 13.27 10.92L13.27 10.92L13.27 10.92Q12.17 9.75 12.17 8.18L12.17 8.18L12.17 8.18Q12.17 6.62 13.21 5.48L13.21 5.48L13.21 5.48Q14.35 4.22 16.08 4.22ZM16.08 5.16L16.08 5.16L16.08 5.16Q14.88 5.16 14.02 6.05L14.02 6.05L14.02 6.05Q13.16 6.94 13.16 8.20L13.16 8.20L13.16 8.20Q13.16 9.01 13.55 9.72L13.55 9.72L13.55 9.72Q13.95 10.42 14.62 10.80L14.62 10.80L14.62 10.80Q15.29 11.18 16.08 11.18L16.08 11.18L16.08 11.18Q16.88 11.18 17.55 10.80L17.55 10.80L17.55 10.80Q18.22 10.42 18.61 9.72L18.61 9.72L18.61 9.72Q19.00 9.01 19.00 8.20L19.00 8.20L19.00 8.20Q19.00 6.94 18.14 6.05L18.14 6.05L18.14 6.05Q17.27 5.16 16.08 5.16ZM21.75 12.09L21.75 9.24L21.74 8.44L21.74 8.44Q21.72 7.85 21.79 7.44L21.79 7.44L21.79 7.44Q21.94 6.15 22.44 5.55L22.44 5.55L22.44 5.55Q22.93 5.02 23.45 4.74L23.45 4.74L23.45 4.74Q24.29 4.38 25.38 4.40L25.38 4.40L25.38 4.40Q26.23 4.40 26.95 4.82L26.95 4.82L26.95 4.82Q27.67 5.25 27.98 5.97L27.98 5.97L27.98 5.97Q28.29 6.69 28.29 8.23L28.29 8.23L28.29 12.09L27.33 12.09L27.33 8.51L27.33 8.51Q27.33 7.21 27.22 6.77L27.22 6.77L27.22 6.77Q27.05 6.03 26.54 5.72L26.54 5.72L26.54 5.72Q26.04 5.41 25.05 5.41L25.05 5.41L25.05 5.41Q24.17 5.41 23.49 5.91L23.49 5.91L23.49 5.91Q22.80 6.42 22.85 7.29L22.85 7.29L22.85 7.29Q22.72 7.85 22.72 9.34L22.72 9.34L22.72 12.09L21.75 12.09ZM34.11 5.23L34.11 5.23L33.50 5.87L33.50 5.87Q32.72 5.12 31.99 5.12L31.99 5.12L31.99 5.12Q31.51 5.12 31.18 5.43L31.18 5.43L31.18 5.43Q30.84 5.74 30.84 6.16L30.84 6.16L30.84 6.16Q30.84 6.51 31.12 6.84L31.12 6.84L31.12 6.84Q31.40 7.19 32.28 7.64L32.28 7.64L32.28 7.64Q33.36 8.20 33.74 8.72L33.74 8.72L33.74 8.72Q34.12 9.24 34.12 9.90L34.12 9.90L34.12 9.90Q34.12 10.81 33.47 11.45L33.47 11.45L33.47 11.45Q32.83 12.09 31.86 12.09L31.86 12.09L31.86 12.09Q31.21 12.09 30.61 11.82L30.61 11.82L30.61 11.82Q30.02 11.54 29.64 11.04L29.64 11.04L30.25 10.35L30.25 10.35Q30.99 11.18 31.81 11.18L31.81 11.18L31.81 11.18Q32.39 11.18 32.80 10.81L32.80 10.81L32.80 10.81Q33.20 10.44 33.20 9.94L33.20 9.94L33.20 9.94Q33.20 9.52 32.94 9.20L32.94 9.20L32.94 9.20Q32.67 8.88 31.73 8.39L31.73 8.39L31.73 8.39Q30.71 7.88 30.34 7.36L30.34 7.36L30.34 7.36Q29.98 6.86 29.98 6.20L29.98 6.20L29.98 6.20Q29.98 5.35 30.56 4.78L30.56 4.78L30.56 4.78Q31.14 4.22 32.03 4.22L32.03 4.22L32.03 4.22Q33.06 4.22 34.11 5.23ZM39.35 4.22L39.35 4.22L39.35 4.22Q41.08 4.22 42.23 5.47L42.23 5.47L42.23 5.47Q43.26 6.62 43.26 8.18L43.26 8.18L43.26 8.18Q43.26 9.75 42.16 10.92L42.16 10.92L42.16 10.92Q41.07 12.09 39.35 12.09L39.35 12.09L39.35 12.09Q37.63 12.09 36.54 10.92L36.54 10.92L36.54 10.92Q35.45 9.75 35.45 8.18L35.45 8.18L35.45 8.18Q35.45 6.62 36.48 5.48L36.48 5.48L36.48 5.48Q37.63 4.22 39.35 4.22ZM39.35 5.16L39.35 5.16L39.35 5.16Q38.16 5.16 37.30 6.05L37.30 6.05L37.30 6.05Q36.44 6.94 36.44 8.20L36.44 8.20L36.44 8.20Q36.44 9.01 36.83 9.72L36.83 9.72L36.83 9.72Q37.22 10.42 37.89 10.80L37.89 10.80L37.89 10.80Q38.56 11.18 39.35 11.18L39.35 11.18L39.35 11.18Q40.16 11.18 40.83 10.80L40.83 10.80L40.83 10.80Q41.49 10.42 41.88 9.72L41.88 9.72L41.88 9.72Q42.27 9.01 42.27 8.20L42.27 8.20L42.27 8.20Q42.27 6.94 41.41 6.05L41.41 6.05L41.41 6.05Q40.55 5.16 39.35 5.16ZM44.88 12.09L44.88 1.69L45.86 1.69L45.86 12.09L44.88 12.09ZM51.39 4.22L51.39 4.22L51.39 4.22Q53.12 4.22 54.26 5.47L54.26 5.47L54.26 5.47Q55.32 6.61 55.32 8.18L55.32 8.18L55.32 8.18Q55.33 12.07 55.32 12.13L55.32 12.13L55.32 12.13Q54.66 12.13 54.30 12.13L54.30 12.13L54.30 12.13Q54.30 12.08 54.30 10.42L54.30 10.42L54.30 10.42Q53.50 11.92 51.39 12.09L51.39 12.09L51.39 12.09Q49.67 12.09 48.58 10.92L48.58 10.92L48.58 10.92Q47.49 9.75 47.49 8.18L47.49 8.18L47.49 8.18Q47.49 6.62 48.52 5.48L48.52 5.48L48.52 5.48Q49.66 4.22 51.39 4.22ZM51.39 5.16L51.39 5.16L51.39 5.16Q50.20 5.16 49.33 6.05L49.33 6.05L49.33 6.05Q48.47 6.94 48.47 8.20L48.47 8.20L48.47 8.20Q48.47 9.01 48.91 9.76L48.91 9.76L48.91 9.76Q49.36 10.51 50.41 11.03L50.41 11.03L50.41 11.03Q53.05 11.62 54.16 8.63L54.16 8.63L54.16 8.63Q54.22 7.68 53.96 6.80L53.96 6.80L53.96 6.80Q53.76 6.41 53.43 6.05L53.43 6.05L53.43 6.05Q52.59 5.16 51.39 5.16ZM57.18 12.09L57.18 9.24L57.17 8.44L57.17 8.44Q57.15 7.85 57.22 7.44L57.22 7.44L57.22 7.44Q57.37 6.15 57.87 5.55L57.87 5.55L57.87 5.55Q58.37 5.02 58.88 4.74L58.88 4.74L58.88 4.74Q59.73 4.38 60.81 4.40L60.81 4.40L60.81 4.40Q61.66 4.40 62.38 4.82L62.38 4.82L62.38 4.82Q63.10 5.25 63.41 5.97L63.41 5.97L63.41 5.97Q63.72 6.69 63.72 8.23L63.72 8.23L63.72 12.09L62.76 12.09L62.76 8.51L62.76 8.51Q62.76 7.21 62.65 6.77L62.65 6.77L62.65 6.77Q62.48 6.03 61.97 5.72L61.97 5.72L61.97 5.72Q61.47 5.41 60.48 5.41L60.48 5.41L60.48 5.41Q59.60 5.41 58.92 5.91L58.92 5.91L58.92 5.91Q58.24 6.42 58.28 7.29L58.28 7.29L58.28 7.29Q58.15 7.85 58.15 9.34L58.15 9.34L58.15 12.09L57.18 12.09ZM66.11 1.50L66.11 1.50L66.11 1.50Q66.44 1.50 66.67 1.74L66.67 1.74L66.67 1.74Q66.91 1.97 66.91 2.30L66.91 2.30L66.91 2.30Q66.91 2.63 66.67 2.86L66.67 2.86L66.67 2.86Q66.44 3.10 66.11 3.10L66.11 3.10L66.11 3.10Q65.78 3.10 65.55 2.86L65.55 2.86L65.55 2.86Q65.32 2.63 65.32 2.30L65.32 2.30L65.32 2.30Q65.32 1.97 65.55 1.74L65.55 1.74L65.55 1.74Q65.78 1.50 66.11 1.50ZM65.63 12.09L65.63 4.59L66.60 4.59L66.60 12.09L65.63 12.09ZM75.63 1.91L75.88 1.91L80.60 12.04L79.52 12.04L77.93 8.70L73.55 8.70L71.98 12.04L70.84 12.04L75.63 1.91ZM77.48 7.73L75.76 4.05L74.01 7.73L77.48 7.73ZM89.45 10.38L89.45 10.38L89.45 10.38Q89.45 11.96 89.17 12.69L89.17 12.69L89.17 12.69Q88.79 13.73 87.85 14.28L87.85 14.28L87.85 14.28Q86.91 14.84 85.60 14.84L85.60 14.84L85.60 14.84Q84.63 14.84 83.86 14.57L83.86 14.57L83.86 14.57Q83.10 14.29 82.61 13.84L82.61 13.84L82.61 13.84Q82.13 13.38 81.72 12.50L81.72 12.50L82.77 12.50L82.77 12.50Q83.20 13.24 83.87 13.60L83.87 13.60L83.87 13.60Q84.55 13.95 85.55 13.95L85.55 13.95L85.55 13.95Q86.54 13.95 87.22 13.58L87.22 13.58L87.22 13.58Q87.90 13.21 88.18 12.66L88.18 12.66L88.18 12.66Q88.47 12.11 88.47 10.86L88.47 10.86L88.47 10.48L88.47 10.48Q87.93 11.17 87.14 11.54L87.14 11.54L87.14 11.54Q86.35 11.91 85.48 11.91L85.48 11.91L85.48 11.91Q84.44 11.91 83.53 11.40L83.53 11.40L83.53 11.40Q82.62 10.88 82.12 10.01L82.12 10.01L82.12 10.01Q81.63 9.14 81.63 8.10L81.63 8.10L81.63 8.10Q81.63 7.06 82.14 6.16L82.14 6.16L82.14 6.16Q82.66 5.26 83.58 4.74L83.58 4.74L83.58 4.74Q84.49 4.22 85.50 4.22L85.50 4.22L85.50 4.22Q86.34 4.22 87.04 4.48L87.04 4.48L87.04 4.48Q87.62 4.69 88.41 5.29L88.41 5.29L88.41 5.29Q89.08 5.84 89.46 7.40L89.46 7.40L89.46 7.40Q89.45 7.61 89.45 10.38ZM85.62 5.15L85.62 5.15L85.62 5.15Q84.80 5.15 84.10 5.54L84.10 5.54L84.10 5.54Q83.40 5.94 83.00 6.64L83.00 6.64L83.00 6.64Q82.60 7.33 82.60 8.15L82.60 8.15L82.60 8.15Q82.60 9.39 83.43 10.19L83.43 10.19L83.43 10.19Q84.25 11.00 85.57 11.00L85.57 11.00L85.57 11.00Q86.91 11.00 87.71 10.20L87.71 10.20L87.71 10.20Q88.52 9.40 88.52 8.09L88.52 8.09L88.52 8.09Q88.52 7.25 88.15 6.58L88.15 6.58L88.15 6.58Q87.77 5.92 87.09 5.53L87.09 5.53L87.09 5.53Q86.41 5.15 85.62 5.15ZM91.37 8.02L91.37 4.41L92.34 4.41L92.34 7.91L92.34 7.91Q92.34 9.19 92.48 9.67L92.48 9.67L92.48 9.67Q92.68 10.36 93.26 10.76L93.26 10.76L93.26 10.76Q93.84 11.16 94.66 11.16L94.66 11.16L94.66 11.16Q95.46 11.16 96.02 10.77L96.02 10.77L96.02 10.77Q96.58 10.38 96.80 9.75L96.80 9.75L96.80 9.75Q96.95 9.32 96.95 7.91L96.95 7.91L96.95 4.41L97.93 4.41L97.93 8.09L97.93 8.09Q97.93 9.65 97.57 10.43L97.57 10.43L97.57 10.43Q97.20 11.21 96.48 11.65L96.48 11.65L96.48 11.65Q95.75 12.09 94.66 12.09L94.66 12.09L94.66 12.09Q93.56 12.09 92.83 11.65L92.83 11.65L92.83 11.65Q92.09 11.21 91.73 10.41L91.73 10.41L91.73 10.41Q91.37 9.62 91.37 8.02L91.37 8.02ZM103.61 4.22L103.61 4.22L103.61 4.22Q105.33 4.22 106.48 5.47L106.48 5.47L106.48 5.47Q107.53 6.61 107.53 8.18L107.53 8.18L107.53 8.18Q107.54 12.07 107.53 12.13L107.53 12.13L107.53 12.13Q106.87 12.13 106.51 12.13L106.51 12.13L106.51 12.13Q106.51 12.08 106.51 10.42L106.51 10.42L106.51 10.42Q105.71 11.92 103.61 12.09L103.61 12.09L103.61 12.09Q101.88 12.09 100.79 10.92L100.79 10.92L100.79 10.92Q99.70 9.75 99.70 8.18L99.70 8.18L99.70 8.18Q99.70 6.62 100.73 5.48L100.73 5.48L100.73 5.48Q101.88 4.22 103.61 4.22ZM103.61 5.16L103.61 5.16L103.61 5.16Q102.41 5.16 101.55 6.05L101.55 6.05L101.55 6.05Q100.69 6.94 100.69 8.20L100.69 8.20L100.69 8.20Q100.69 9.01 101.13 9.76L101.13 9.76L101.13 9.76Q101.57 10.51 102.62 11.03L102.62 11.03L102.62 11.03Q105.26 11.62 106.37 8.63L106.37 8.63L106.37 8.63Q106.44 7.68 106.17 6.80L106.17 6.80L106.17 6.80Q105.98 6.41 105.64 6.05L105.64 6.05L105.64 6.05Q104.80 5.16 103.61 5.16ZM116.54 12.04L113.31 12.04L113.31 1.91L115.41 1.91L115.41 1.91Q117.69 1.91 118.72 2.28L118.72 2.28L118.72 2.28Q120.19 2.79 121.02 4.06L121.02 4.06L121.02 4.06Q121.85 5.34 121.85 7.10L121.85 7.10L121.85 7.10Q121.85 8.62 121.19 9.78L121.19 9.78L121.19 9.78Q120.53 10.94 119.48 11.49L119.48 11.49L119.48 11.49Q118.43 12.04 116.54 12.04L116.54 12.04ZM114.28 2.89L114.28 11.08L115.45 11.08L115.45 11.08Q117.55 11.08 118.37 10.82L118.37 10.82L118.37 10.82Q119.51 10.45 120.17 9.48L120.17 9.48L120.17 9.48Q120.83 8.52 120.83 7.12L120.83 7.12L120.83 7.12Q120.83 5.65 120.12 4.61L120.12 4.61L120.12 4.61Q119.41 3.57 118.14 3.19L118.14 3.19L118.14 3.19Q117.18 2.89 115.00 2.89L115.00 2.89L114.28 2.89ZM123.52 8.02L123.52 4.41L124.49 4.41L124.49 7.91L124.49 7.91Q124.49 9.19 124.63 9.67L124.63 9.67L124.63 9.67Q124.83 10.36 125.41 10.76L125.41 10.76L125.41 10.76Q125.99 11.16 126.81 11.16L126.81 11.16L126.81 11.16Q127.61 11.16 128.17 10.77L128.17 10.77L128.17 10.77Q128.73 10.38 128.95 9.75L128.95 9.75L128.95 9.75Q129.10 9.32 129.10 7.91L129.10 7.91L129.10 4.41L130.08 4.41L130.08 8.09L130.08 8.09Q130.08 9.65 129.72 10.43L129.72 10.43L129.72 10.43Q129.35 11.21 128.63 11.65L128.63 11.65L128.63 11.65Q127.90 12.09 126.81 12.09L126.81 12.09L126.81 12.09Q125.71 12.09 124.97 11.65L124.97 11.65L124.97 11.65Q124.24 11.21 123.88 10.41L123.88 10.41L123.88 10.41Q123.52 9.62 123.52 8.02L123.52 8.02ZM132.06 12.09L132.06 1.69L133.03 1.69L133.03 12.09L132.06 12.09ZM142.30 5.97L142.30 5.97L141.54 6.45L141.54 6.45Q140.55 5.12 138.83 5.12L138.83 5.12L138.83 5.12Q137.46 5.12 136.55 6.00L136.55 6.00L136.55 6.00Q135.65 6.88 135.65 8.15L135.65 8.15L135.65 8.15Q135.65 8.97 136.06 9.70L136.06 9.70L136.06 9.70Q136.48 10.42 137.20 10.82L137.20 10.82L137.20 10.82Q137.93 11.22 138.83 11.22L138.83 11.22L138.83 11.22Q140.49 11.22 141.54 9.91L141.54 9.91L142.30 10.40L142.30 10.40Q141.76 11.21 140.86 11.65L140.86 11.65L140.86 11.65Q139.95 12.09 138.79 12.09L138.79 12.09L138.79 12.09Q137.02 12.09 135.85 10.96L135.85 10.96L135.85 10.96Q134.67 9.84 134.67 8.22L134.67 8.22L134.67 8.22Q134.67 7.13 135.23 6.20L135.23 6.20L135.23 6.20Q135.78 5.26 136.73 4.74L136.73 4.74L136.73 4.74Q137.68 4.22 138.87 4.22L138.87 4.22L138.87 4.22Q139.61 4.22 140.30 4.44L140.30 4.44L140.30 4.44Q141.00 4.67 141.48 5.03L141.48 5.03L141.48 5.03Q141.97 5.40 142.30 5.97ZM150.46 9.42L150.46 9.42L151.27 9.85L151.27 9.85Q150.88 10.64 150.35 11.12L150.35 11.12L150.35 11.12Q149.82 11.59 149.17 11.84L149.17 11.84L149.17 11.84Q148.51 12.09 147.68 12.09L147.68 12.09L147.68 12.09Q145.85 12.09 144.82 10.89L144.82 10.89L144.82 10.89Q143.79 9.69 143.79 8.18L143.79 8.18L143.79 8.18Q143.79 6.75 144.66 5.64L144.66 5.64L144.66 5.64Q145.77 4.22 147.64 4.22L147.64 4.22L147.64 4.22Q149.54 4.22 150.69 5.67L150.69 5.67L150.69 5.67Q151.50 6.70 151.51 8.23L151.51 8.23L144.78 8.23L144.78 8.23Q144.81 9.54 145.61 10.38L145.61 10.38L145.61 10.38Q146.42 11.22 147.60 11.22L147.60 11.22L147.60 11.22Q148.18 11.22 148.72 11.02L148.72 11.02L148.72 11.02Q149.26 10.81 149.64 10.49L149.64 10.49L149.64 10.49Q150.01 10.16 150.46 9.42ZM144.88 7.40L150.46 7.40L150.46 7.40Q150.27 6.63 149.90 6.17L149.90 6.17L149.90 6.17Q149.53 5.71 148.92 5.42L148.92 5.42L148.92 5.42Q148.31 5.14 147.64 5.14L147.64 5.14L147.64 5.14Q146.54 5.14 145.75 5.85L145.75 5.85L145.75 5.85Q145.17 6.37 144.88 7.40L144.88 7.40Z"></path></g><!----><g data-v-423bf9ae="" id="52b120bf-1c5e-4633-9046-d20cf59f0361" transform="matrix(1.4985601907347117,0,0,1.4985601907347117,-37.929113264463766,-25.969770023371495)" stroke="none" fill="black"><path d="M42.139 29.84c-.398 0-.767.199-.988.531-.619.932-15.212 22.916-15.212 31.48 0 8.933 7.268 16.198 16.2 16.198 8.934 0 16.201-7.265 16.201-16.198 0-8.564-14.594-30.548-15.216-31.48a1.18 1.18 0 0 0-.985-.531zm0 45.839c-7.626 0-13.829-6.203-13.829-13.828 0-6.597 10.325-23.207 13.829-28.653 3.506 5.446 13.828 22.053 13.828 28.653 0 7.625-6.201 13.828-13.828 13.828z"></path><path d="M43.164 74.837c.072 0 .145-.008.218-.024 5.612-1.206 10.035-5.467 11.266-10.856.146-.627-.217-1.267-.803-1.429-.586-.159-1.204.238-1.347.866-1.032 4.499-4.781 8.07-9.552 9.095-.593.126-.983.749-.868 1.389.099.554.559.959 1.086.959zM61.397 62.041c.093 0 .187-.012.275-.032 4.305-1.016 7.686-4.563 8.62-9.042a1.178 1.178 0 0 0-.92-1.4 1.203 1.203 0 0 0-1.403.919c-.744 3.58-3.429 6.41-6.842 7.216a1.18 1.18 0 0 0-.884 1.426c.129.536.605.913 1.154.913z"></path><path d="M58.766 18.523a1.182 1.182 0 0 0-1.974 0c-.046.068-4.833 7.264-8.979 14.962a1.18 1.18 0 0 0 .479 1.606c.56.3 1.306.078 1.607-.477 2.993-5.556 6.374-10.925 7.878-13.266 3.507 5.446 13.828 22.053 13.828 28.654a13.78 13.78 0 0 1-10.588 13.447 1.186 1.186 0 0 0-.877 1.429 1.182 1.182 0 0 0 1.431.875 16.145 16.145 0 0 0 12.41-15.751c.001-8.564-14.595-30.548-15.215-31.479zM52.656 60.243c-.031.652.475 1.143 1.124 1.143h.13c.608 0 1.086-.422 1.117-1.024.008-.19.069-1.778-.736-2.925-.366-.514-1.138-.647-1.654-.283a1.187 1.187 0 0 0-.284 1.652c.237.336.323 1.021.303 1.437z"></path></g><!----><g data-v-423bf9ae="" id="2ded6321-a87a-4623-b8e2-c744b27a92b3" fill="black" transform="matrix(1.6194804306708195,0,0,1.6194804306708195,90.0181559230893,58.5424668381839)"><path d="M1.22 12.04L1.22 1.91L3.23 1.91L3.23 1.91Q4.98 1.91 5.58 2.06L5.58 2.06L5.58 2.06Q6.45 2.28 7 2.94L7 2.94L7 2.94Q7.55 3.60 7.55 4.61L7.55 4.61L7.55 4.61Q7.55 5.62 7.01 6.28L7.01 6.28L7.01 6.28Q6.47 6.94 5.53 7.16L5.53 7.16L5.53 7.16Q4.84 7.33 2.95 7.33L2.95 7.33L2.23 7.33L2.23 12.04L1.22 12.04ZM4.02 2.89L2.23 2.89L2.23 6.34L3.95 6.36L3.95 6.36Q4.98 6.36 5.47 6.17L5.47 6.17L5.47 6.17Q5.95 5.98 6.22 5.55L6.22 5.55L6.22 5.55Q6.50 5.13 6.50 4.61L6.50 4.61L6.50 4.61Q6.50 4.09 6.22 3.67L6.22 3.67L6.22 3.67Q5.95 3.25 5.50 3.07L5.50 3.07L5.50 3.07Q5.04 2.89 4.02 2.89L4.02 2.89ZM9.04 12.07L9.04 8.65L9.04 7.75L9.04 7.75Q9.15 7.08 9.35 6.65L9.35 6.65L9.35 6.65Q9.83 5.48 10.64 4.93L10.64 4.93L10.64 4.93Q11.44 4.38 11.98 4.38L11.98 4.38L11.98 4.38Q12.37 4.38 12.82 4.64L12.82 4.64L12.33 5.45L12.33 5.45Q11.69 5.22 11.06 5.82L11.06 5.82L11.06 5.82Q10.44 6.43 10.20 7.15L10.20 7.15L10.20 7.15Q10.02 7.79 10.02 9.54L10.02 9.54L10.02 12.07L9.04 12.07ZM16.93 4.22L16.93 4.22L16.93 4.22Q18.66 4.22 19.80 5.47L19.80 5.47L19.80 5.47Q20.84 6.62 20.84 8.18L20.84 8.18L20.84 8.18Q20.84 9.75 19.74 10.92L19.74 10.92L19.74 10.92Q18.65 12.09 16.93 12.09L16.93 12.09L16.93 12.09Q15.21 12.09 14.12 10.92L14.12 10.92L14.12 10.92Q13.03 9.75 13.03 8.18L13.03 8.18L13.03 8.18Q13.03 6.62 14.06 5.48L14.06 5.48L14.06 5.48Q15.20 4.22 16.93 4.22ZM16.93 5.16L16.93 5.16L16.93 5.16Q15.74 5.16 14.88 6.05L14.88 6.05L14.88 6.05Q14.01 6.94 14.01 8.20L14.01 8.20L14.01 8.20Q14.01 9.01 14.41 9.72L14.41 9.72L14.41 9.72Q14.80 10.42 15.47 10.80L15.47 10.80L15.47 10.80Q16.14 11.18 16.93 11.18L16.93 11.18L16.93 11.18Q17.74 11.18 18.41 10.80L18.41 10.80L18.41 10.80Q19.07 10.42 19.46 9.72L19.46 9.72L19.46 9.72Q19.85 9.01 19.85 8.20L19.85 8.20L19.85 8.20Q19.85 6.94 18.99 6.05L18.99 6.05L18.99 6.05Q18.13 5.16 16.93 5.16ZM26.38 5.23L26.38 5.23L25.76 5.87L25.76 5.87Q24.99 5.12 24.25 5.12L24.25 5.12L24.25 5.12Q23.78 5.12 23.45 5.43L23.45 5.43L23.45 5.43Q23.11 5.74 23.11 6.16L23.11 6.16L23.11 6.16Q23.11 6.51 23.39 6.84L23.39 6.84L23.39 6.84Q23.67 7.19 24.55 7.64L24.55 7.64L24.55 7.64Q25.63 8.20 26.01 8.72L26.01 8.72L26.01 8.72Q26.39 9.24 26.39 9.90L26.39 9.90L26.39 9.90Q26.39 10.81 25.74 11.45L25.74 11.45L25.74 11.45Q25.09 12.09 24.12 12.09L24.12 12.09L24.12 12.09Q23.47 12.09 22.88 11.82L22.88 11.82L22.88 11.82Q22.29 11.54 21.91 11.04L21.91 11.04L22.52 10.35L22.52 10.35Q23.26 11.18 24.08 11.18L24.08 11.18L24.08 11.18Q24.66 11.18 25.06 10.81L25.06 10.81L25.06 10.81Q25.47 10.44 25.47 9.94L25.47 9.94L25.47 9.94Q25.47 9.52 25.20 9.20L25.20 9.20L25.20 9.20Q24.94 8.88 23.99 8.39L23.99 8.39L23.99 8.39Q22.98 7.88 22.61 7.36L22.61 7.36L22.61 7.36Q22.24 6.86 22.24 6.20L22.24 6.20L22.24 6.20Q22.24 5.35 22.83 4.78L22.83 4.78L22.83 4.78Q23.41 4.22 24.29 4.22L24.29 4.22L24.29 4.22Q25.33 4.22 26.38 5.23ZM28.68 5.71L28.68 5.71L28.68 5.71Q28.07 6.73 27.95 7.72L27.95 7.72L27.95 7.72Q27.95 14.84 27.95 14.83L27.95 14.83L28.90 14.83L28.90 10.64L28.90 10.64Q29.51 11.39 30.26 11.75L30.26 11.75L30.26 11.75Q31.01 12.12 31.91 12.12L31.91 12.12L31.91 12.12Q33.50 12.12 34.62 10.96L34.62 10.96L34.62 10.96Q35.75 9.81 35.75 8.16L35.75 8.16L35.75 8.16Q35.75 6.54 34.62 5.39L34.62 5.39L34.62 5.39Q33.48 4.25 31.88 4.25L31.88 4.25L31.88 4.25Q30.97 4.25 30.16 4.60L30.16 4.60L30.16 4.60Q29.36 4.95 28.68 5.71ZM31.80 5.17L31.80 5.17L31.80 5.17Q32.61 5.17 33.29 5.57L33.29 5.57L33.29 5.57Q33.97 5.97 34.38 6.68L34.38 6.68L34.38 6.68Q34.78 7.39 34.78 8.20L34.78 8.20L34.78 8.20Q34.78 8.99 34.37 9.72L34.37 9.72L34.37 9.72Q33.97 10.45 33.28 10.85L33.28 10.85L33.28 10.85Q32.59 11.25 31.81 11.25L31.81 11.25L31.81 11.25Q31.02 11.25 30.31 10.85L30.31 10.85L30.31 10.85Q29.60 10.45 29.22 9.76L29.22 9.76L29.22 9.76Q28.83 9.07 28.83 8.22L28.83 8.22L28.83 8.22Q28.83 6.92 29.70 6.04L29.70 6.04L29.70 6.04Q30.56 5.17 31.80 5.17ZM44.00 9.42L44.00 9.42L44.80 9.85L44.80 9.85Q44.41 10.64 43.89 11.12L43.89 11.12L43.89 11.12Q43.36 11.59 42.70 11.84L42.70 11.84L42.70 11.84Q42.05 12.09 41.22 12.09L41.22 12.09L41.22 12.09Q39.39 12.09 38.36 10.89L38.36 10.89L38.36 10.89Q37.32 9.69 37.32 8.18L37.32 8.18L37.32 8.18Q37.32 6.75 38.20 5.64L38.20 5.64L38.20 5.64Q39.31 4.22 41.17 4.22L41.17 4.22L41.17 4.22Q43.08 4.22 44.23 5.67L44.23 5.67L44.23 5.67Q45.04 6.70 45.05 8.23L45.05 8.23L38.32 8.23L38.32 8.23Q38.34 9.54 39.15 10.38L39.15 10.38L39.15 10.38Q39.96 11.22 41.14 11.22L41.14 11.22L41.14 11.22Q41.71 11.22 42.25 11.02L42.25 11.02L42.25 11.02Q42.79 10.81 43.17 10.49L43.17 10.49L43.17 10.49Q43.55 10.16 44.00 9.42ZM38.42 7.40L44.00 7.40L44.00 7.40Q43.80 6.63 43.44 6.17L43.44 6.17L43.44 6.17Q43.07 5.71 42.46 5.42L42.46 5.42L42.46 5.42Q41.85 5.14 41.18 5.14L41.18 5.14L41.18 5.14Q40.08 5.14 39.29 5.85L39.29 5.85L39.29 5.85Q38.71 6.37 38.42 7.40L38.42 7.40ZM54.12 5.97L54.12 5.97L53.35 6.45L53.35 6.45Q52.36 5.12 50.65 5.12L50.65 5.12L50.65 5.12Q49.27 5.12 48.37 6.00L48.37 6.00L48.37 6.00Q47.46 6.88 47.46 8.15L47.46 8.15L47.46 8.15Q47.46 8.97 47.88 9.70L47.88 9.70L47.88 9.70Q48.30 10.42 49.02 10.82L49.02 10.82L49.02 10.82Q49.75 11.22 50.65 11.22L50.65 11.22L50.65 11.22Q52.31 11.22 53.35 9.91L53.35 9.91L54.12 10.40L54.12 10.40Q53.58 11.21 52.67 11.65L52.67 11.65L52.67 11.65Q51.77 12.09 50.61 12.09L50.61 12.09L50.61 12.09Q48.84 12.09 47.66 10.96L47.66 10.96L47.66 10.96Q46.49 9.84 46.49 8.22L46.49 8.22L46.49 8.22Q46.49 7.13 47.04 6.20L47.04 6.20L47.04 6.20Q47.59 5.26 48.55 4.74L48.55 4.74L48.55 4.74Q49.50 4.22 50.69 4.22L50.69 4.22L50.69 4.22Q51.43 4.22 52.12 4.44L52.12 4.44L52.12 4.44Q52.81 4.67 53.30 5.03L53.30 5.03L53.30 5.03Q53.79 5.40 54.12 5.97ZM63.24 5.97L63.24 5.97L62.47 6.45L62.47 6.45Q61.48 5.12 59.77 5.12L59.77 5.12L59.77 5.12Q58.39 5.12 57.49 6.00L57.49 6.00L57.49 6.00Q56.58 6.88 56.58 8.15L56.58 8.15L56.58 8.15Q56.58 8.97 57.00 9.70L57.00 9.70L57.00 9.70Q57.42 10.42 58.14 10.82L58.14 10.82L58.14 10.82Q58.86 11.22 59.77 11.22L59.77 11.22L59.77 11.22Q61.43 11.22 62.47 9.91L62.47 9.91L63.24 10.40L63.24 10.40Q62.70 11.21 61.79 11.65L61.79 11.65L61.79 11.65Q60.89 12.09 59.73 12.09L59.73 12.09L59.73 12.09Q57.96 12.09 56.78 10.96L56.78 10.96L56.78 10.96Q55.61 9.84 55.61 8.22L55.61 8.22L55.61 8.22Q55.61 7.13 56.16 6.20L56.16 6.20L56.16 6.20Q56.71 5.26 57.66 4.74L57.66 4.74L57.66 4.74Q58.62 4.22 59.81 4.22L59.81 4.22L59.81 4.22Q60.55 4.22 61.24 4.44L61.24 4.44L61.24 4.44Q61.93 4.67 62.42 5.03L62.42 5.03L62.42 5.03Q62.90 5.40 63.24 5.97ZM65.42 1.50L65.42 1.50L65.42 1.50Q65.75 1.50 65.98 1.74L65.98 1.74L65.98 1.74Q66.22 1.97 66.22 2.30L66.22 2.30L66.22 2.30Q66.22 2.63 65.98 2.86L65.98 2.86L65.98 2.86Q65.75 3.10 65.42 3.10L65.42 3.10L65.42 3.10Q65.09 3.10 64.86 2.86L64.86 2.86L64.86 2.86Q64.63 2.63 64.63 2.30L64.63 2.30L64.63 2.30Q64.63 1.97 64.86 1.74L64.86 1.74L64.86 1.74Q65.09 1.50 65.42 1.50ZM64.94 12.09L64.94 4.59L65.91 4.59L65.91 12.09L64.94 12.09ZM71.44 4.22L71.44 4.22L71.44 4.22Q73.17 4.22 74.31 5.47L74.31 5.47L74.31 5.47Q75.35 6.62 75.35 8.18L75.35 8.18L75.35 8.18Q75.35 9.75 74.25 10.92L74.25 10.92L74.25 10.92Q73.16 12.09 71.44 12.09L71.44 12.09L71.44 12.09Q69.72 12.09 68.63 10.92L68.63 10.92L68.63 10.92Q67.54 9.75 67.54 8.18L67.54 8.18L67.54 8.18Q67.54 6.62 68.57 5.48L68.57 5.48L68.57 5.48Q69.71 4.22 71.44 4.22ZM71.44 5.16L71.44 5.16L71.44 5.16Q70.25 5.16 69.38 6.05L69.38 6.05L69.38 6.05Q68.52 6.94 68.52 8.20L68.52 8.20L68.52 8.20Q68.52 9.01 68.92 9.72L68.92 9.72L68.92 9.72Q69.31 10.42 69.98 10.80L69.98 10.80L69.98 10.80Q70.65 11.18 71.44 11.18L71.44 11.18L71.44 11.18Q72.25 11.18 72.92 10.80L72.92 10.80L72.92 10.80Q73.58 10.42 73.97 9.72L73.97 9.72L73.97 9.72Q74.36 9.01 74.36 8.20L74.36 8.20L74.36 8.20Q74.36 6.94 73.50 6.05L73.50 6.05L73.50 6.05Q72.64 5.16 71.44 5.16ZM70.42 3.01L71.92 0.90L73.40 0.90L71.37 3.01L70.42 3.01ZM77.11 12.09L77.11 9.24L77.10 8.44L77.10 8.44Q77.08 7.85 77.14 7.44L77.14 7.44L77.14 7.44Q77.29 6.15 77.80 5.55L77.80 5.55L77.80 5.55Q78.29 5.02 78.80 4.74L78.80 4.74L78.80 4.74Q79.65 4.38 80.74 4.40L80.74 4.40L80.74 4.40Q81.59 4.40 82.31 4.82L82.31 4.82L82.31 4.82Q83.03 5.25 83.34 5.97L83.34 5.97L83.34 5.97Q83.64 6.69 83.64 8.23L83.64 8.23L83.64 12.09L82.69 12.09L82.69 8.51L82.69 8.51Q82.69 7.21 82.58 6.77L82.58 6.77L82.58 6.77Q82.41 6.03 81.90 5.72L81.90 5.72L81.90 5.72Q81.40 5.41 80.40 5.41L80.40 5.41L80.40 5.41Q79.53 5.41 78.85 5.91L78.85 5.91L78.85 5.91Q78.16 6.42 78.21 7.29L78.21 7.29L78.21 7.29Q78.08 7.85 78.08 9.34L78.08 9.34L78.08 12.09L77.11 12.09ZM96.89 10.38L96.89 10.38L96.89 10.38Q96.89 11.96 96.61 12.69L96.61 12.69L96.61 12.69Q96.24 13.73 95.30 14.28L95.30 14.28L95.30 14.28Q94.36 14.84 93.04 14.84L93.04 14.84L93.04 14.84Q92.07 14.84 91.31 14.57L91.31 14.57L91.31 14.57Q90.54 14.29 90.06 13.84L90.06 13.84L90.06 13.84Q89.57 13.38 89.17 12.50L89.17 12.50L90.21 12.50L90.21 12.50Q90.64 13.24 91.32 13.60L91.32 13.60L91.32 13.60Q91.99 13.95 93.00 13.95L93.00 13.95L93.00 13.95Q93.98 13.95 94.66 13.58L94.66 13.58L94.66 13.58Q95.34 13.21 95.63 12.66L95.63 12.66L95.63 12.66Q95.92 12.11 95.92 10.86L95.92 10.86L95.92 10.48L95.92 10.48Q95.38 11.17 94.59 11.54L94.59 11.54L94.59 11.54Q93.80 11.91 92.92 11.91L92.92 11.91L92.92 11.91Q91.89 11.91 90.98 11.40L90.98 11.40L90.98 11.40Q90.06 10.88 89.57 10.01L89.57 10.01L89.57 10.01Q89.07 9.14 89.07 8.10L89.07 8.10L89.07 8.10Q89.07 7.06 89.59 6.16L89.59 6.16L89.59 6.16Q90.10 5.26 91.02 4.74L91.02 4.74L91.02 4.74Q91.94 4.22 92.94 4.22L92.94 4.22L92.94 4.22Q93.79 4.22 94.48 4.48L94.48 4.48L94.48 4.48Q95.06 4.69 95.85 5.29L95.85 5.29L95.85 5.29Q96.52 5.84 96.91 7.40L96.91 7.40L96.91 7.40Q96.89 7.61 96.89 10.38ZM93.06 5.15L93.06 5.15L93.06 5.15Q92.24 5.15 91.54 5.54L91.54 5.54L91.54 5.54Q90.84 5.94 90.44 6.64L90.44 6.64L90.44 6.64Q90.04 7.33 90.04 8.15L90.04 8.15L90.04 8.15Q90.04 9.39 90.87 10.19L90.87 10.19L90.87 10.19Q91.70 11.00 93.01 11.00L93.01 11.00L93.01 11.00Q94.35 11.00 95.16 10.20L95.16 10.20L95.16 10.20Q95.96 9.40 95.96 8.09L95.96 8.09L95.96 8.09Q95.96 7.25 95.59 6.58L95.59 6.58L95.59 6.58Q95.22 5.92 94.54 5.53L94.54 5.53L94.54 5.53Q93.86 5.15 93.06 5.15ZM105.25 9.42L105.25 9.42L106.06 9.85L106.06 9.85Q105.67 10.64 105.14 11.12L105.14 11.12L105.14 11.12Q104.62 11.59 103.96 11.84L103.96 11.84L103.96 11.84Q103.30 12.09 102.48 12.09L102.48 12.09L102.48 12.09Q100.65 12.09 99.61 10.89L99.61 10.89L99.61 10.89Q98.58 9.69 98.58 8.18L98.58 8.18L98.58 8.18Q98.58 6.75 99.46 5.64L99.46 5.64L99.46 5.64Q100.56 4.22 102.43 4.22L102.43 4.22L102.43 4.22Q104.34 4.22 105.49 5.67L105.49 5.67L105.49 5.67Q106.30 6.70 106.31 8.23L106.31 8.23L99.57 8.23L99.57 8.23Q99.60 9.54 100.41 10.38L100.41 10.38L100.41 10.38Q101.21 11.22 102.40 11.22L102.40 11.22L102.40 11.22Q102.97 11.22 103.51 11.02L103.51 11.02L103.51 11.02Q104.05 10.81 104.43 10.49L104.43 10.49L104.43 10.49Q104.81 10.16 105.25 9.42ZM99.67 7.40L105.25 7.40L105.25 7.40Q105.06 6.63 104.69 6.17L104.69 6.17L104.69 6.17Q104.32 5.71 103.71 5.42L103.71 5.42L103.71 5.42Q103.11 5.14 102.44 5.14L102.44 5.14L102.44 5.14Q101.34 5.14 100.54 5.85L100.54 5.85L100.54 5.85Q99.97 6.37 99.67 7.40L99.67 7.40ZM111.64 4.22L111.64 4.22L111.64 4.22Q113.37 4.22 114.52 5.47L114.52 5.47L114.52 5.47Q115.55 6.62 115.55 8.18L115.55 8.18L115.55 8.18Q115.55 9.75 114.45 10.92L114.45 10.92L114.45 10.92Q113.36 12.09 111.64 12.09L111.64 12.09L111.64 12.09Q109.92 12.09 108.83 10.92L108.83 10.92L108.83 10.92Q107.74 9.75 107.74 8.18L107.74 8.18L107.74 8.18Q107.74 6.62 108.77 5.48L108.77 5.48L108.77 5.48Q109.92 4.22 111.64 4.22ZM111.64 5.16L111.64 5.16L111.64 5.16Q110.45 5.16 109.59 6.05L109.59 6.05L109.59 6.05Q108.73 6.94 108.73 8.20L108.73 8.20L108.73 8.20Q108.73 9.01 109.12 9.72L109.12 9.72L109.12 9.72Q109.51 10.42 110.18 10.80L110.18 10.80L110.18 10.80Q110.85 11.18 111.64 11.18L111.64 11.18L111.64 11.18Q112.45 11.18 113.12 10.80L113.12 10.80L113.12 10.80Q113.78 10.42 114.17 9.72L114.17 9.72L114.17 9.72Q114.56 9.01 114.56 8.20L114.56 8.20L114.56 8.20Q114.56 6.94 113.70 6.05L113.70 6.05L113.70 6.05Q112.84 5.16 111.64 5.16ZM123.63 9.42L123.63 9.42L124.44 9.85L124.44 9.85Q124.05 10.64 123.53 11.12L123.53 11.12L123.53 11.12Q123.00 11.59 122.34 11.84L122.34 11.84L122.34 11.84Q121.69 12.09 120.86 12.09L120.86 12.09L120.86 12.09Q119.03 12.09 118.00 10.89L118.00 10.89L118.00 10.89Q116.96 9.69 116.96 8.18L116.96 8.18L116.96 8.18Q116.96 6.75 117.84 5.64L117.84 5.64L117.84 5.64Q118.95 4.22 120.81 4.22L120.81 4.22L120.81 4.22Q122.72 4.22 123.87 5.67L123.87 5.67L123.87 5.67Q124.68 6.70 124.69 8.23L124.69 8.23L117.95 8.23L117.95 8.23Q117.98 9.54 118.79 10.38L118.79 10.38L118.79 10.38Q119.59 11.22 120.78 11.22L120.78 11.22L120.78 11.22Q121.35 11.22 121.89 11.02L121.89 11.02L121.89 11.02Q122.43 10.81 122.81 10.49L122.81 10.49L122.81 10.49Q123.19 10.16 123.63 9.42ZM118.06 7.40L123.63 7.40L123.63 7.40Q123.44 6.63 123.07 6.17L123.07 6.17L123.07 6.17Q122.71 5.71 122.10 5.42L122.10 5.42L122.10 5.42Q121.49 5.14 120.82 5.14L120.82 5.14L120.82 5.14Q119.72 5.14 118.92 5.85L118.92 5.85L118.92 5.85Q118.35 6.37 118.06 7.40L118.06 7.40ZM126.33 12.09L126.33 1.69L127.31 1.69L127.31 12.09L126.33 12.09ZM135.61 9.42L135.61 9.42L136.42 9.85L136.42 9.85Q136.03 10.64 135.50 11.12L135.50 11.12L135.50 11.12Q134.98 11.59 134.32 11.84L134.32 11.84L134.32 11.84Q133.66 12.09 132.84 12.09L132.84 12.09L132.84 12.09Q131.00 12.09 129.97 10.89L129.97 10.89L129.97 10.89Q128.94 9.69 128.94 8.18L128.94 8.18L128.94 8.18Q128.94 6.75 129.81 5.64L129.81 5.64L129.81 5.64Q130.92 4.22 132.79 4.22L132.79 4.22L132.79 4.22Q134.70 4.22 135.84 5.67L135.84 5.67L135.84 5.67Q136.66 6.70 136.66 8.23L136.66 8.23L129.93 8.23L129.93 8.23Q129.96 9.54 130.76 10.38L130.76 10.38L130.76 10.38Q131.57 11.22 132.75 11.22L132.75 11.22L132.75 11.22Q133.33 11.22 133.87 11.02L133.87 11.02L133.87 11.02Q134.41 10.81 134.79 10.49L134.79 10.49L134.79 10.49Q135.17 10.16 135.61 9.42ZM130.03 7.40L135.61 7.40L135.61 7.40Q135.42 6.63 135.05 6.17L135.05 6.17L135.05 6.17Q134.68 5.71 134.07 5.42L134.07 5.42L134.07 5.42Q133.46 5.14 132.79 5.14L132.79 5.14L132.79 5.14Q131.69 5.14 130.90 5.85L130.90 5.85L130.90 5.85Q130.33 6.37 130.03 7.40L130.03 7.40ZM131.78 3.01L133.29 0.90L134.77 0.90L132.74 3.01L131.78 3.01ZM145.98 5.97L145.98 5.97L145.22 6.45L145.22 6.45Q144.22 5.12 142.51 5.12L142.51 5.12L142.51 5.12Q141.13 5.12 140.23 6.00L140.23 6.00L140.23 6.00Q139.32 6.88 139.32 8.15L139.32 8.15L139.32 8.15Q139.32 8.97 139.74 9.70L139.74 9.70L139.74 9.70Q140.16 10.42 140.88 10.82L140.88 10.82L140.88 10.82Q141.61 11.22 142.51 11.22L142.51 11.22L142.51 11.22Q144.17 11.22 145.22 9.91L145.22 9.91L145.98 10.40L145.98 10.40Q145.44 11.21 144.54 11.65L144.54 11.65L144.54 11.65Q143.63 12.09 142.47 12.09L142.47 12.09L142.47 12.09Q140.70 12.09 139.52 10.96L139.52 10.96L139.52 10.96Q138.35 9.84 138.35 8.22L138.35 8.22L138.35 8.22Q138.35 7.13 138.90 6.20L138.90 6.20L138.90 6.20Q139.45 5.26 140.41 4.74L140.41 4.74L140.41 4.74Q141.36 4.22 142.55 4.22L142.55 4.22L142.55 4.22Q143.29 4.22 143.98 4.44L143.98 4.44L143.98 4.44Q144.68 4.67 145.16 5.03L145.16 5.03L145.16 5.03Q145.65 5.40 145.98 5.97ZM150.53 11.03L150.53 11.03L150.53 11.03Q149.82 11.41 149.13 11.09L149.13 11.09L149.13 11.09Q148.30 10.45 148.34 9.28L148.34 9.28L148.34 6.10L150.12 6.10L150.12 5.28L148.33 5.28L148.33 1.65L147.36 1.65L147.36 9.44L147.36 9.44Q147.35 10.26 147.74 10.94L147.74 10.94L147.74 10.94Q148.38 12.03 149.49 12.09L149.49 12.09L149.49 12.09Q150.08 12.11 150.83 11.83L150.83 11.83L150.83 11.83Q150.71 11.54 150.53 11.03ZM152.00 12.07L152.00 8.65L152.00 7.75L152.00 7.75Q152.11 7.08 152.31 6.65L152.31 6.65L152.31 6.65Q152.79 5.48 153.60 4.93L153.60 4.93L153.60 4.93Q154.40 4.38 154.94 4.38L154.94 4.38L154.94 4.38Q155.33 4.38 155.78 4.64L155.78 4.64L155.29 5.45L155.29 5.45Q154.65 5.22 154.02 5.82L154.02 5.82L154.02 5.82Q153.40 6.43 153.16 7.15L153.16 7.15L153.16 7.15Q152.98 7.79 152.98 9.54L152.98 9.54L152.98 12.07L152.00 12.07ZM156.94 1.50L156.94 1.50L156.94 1.50Q157.27 1.50 157.50 1.74L157.50 1.74L157.50 1.74Q157.74 1.97 157.74 2.30L157.74 2.30L157.74 2.30Q157.74 2.63 157.50 2.86L157.50 2.86L157.50 2.86Q157.27 3.10 156.94 3.10L156.94 3.10L156.94 3.10Q156.61 3.10 156.38 2.86L156.38 2.86L156.38 2.86Q156.15 2.63 156.15 2.30L156.15 2.30L156.15 2.30Q156.15 1.97 156.38 1.74L156.38 1.74L156.38 1.74Q156.61 1.50 156.94 1.50ZM156.46 12.09L156.46 4.59L157.42 4.59L157.42 12.09L156.46 12.09ZM166.69 5.97L166.69 5.97L165.93 6.45L165.93 6.45Q164.94 5.12 163.22 5.12L163.22 5.12L163.22 5.12Q161.85 5.12 160.94 6.00L160.94 6.00L160.94 6.00Q160.04 6.88 160.04 8.15L160.04 8.15L160.04 8.15Q160.04 8.97 160.45 9.70L160.45 9.70L160.45 9.70Q160.87 10.42 161.59 10.82L161.59 10.82L161.59 10.82Q162.32 11.22 163.22 11.22L163.22 11.22L163.22 11.22Q164.88 11.22 165.93 9.91L165.93 9.91L166.69 10.40L166.69 10.40Q166.15 11.21 165.25 11.65L165.25 11.65L165.25 11.65Q164.34 12.09 163.18 12.09L163.18 12.09L163.18 12.09Q161.41 12.09 160.24 10.96L160.24 10.96L160.24 10.96Q159.07 9.84 159.07 8.22L159.07 8.22L159.07 8.22Q159.07 7.13 159.62 6.20L159.62 6.20L159.62 6.20Q160.17 5.26 161.12 4.74L161.12 4.74L161.12 4.74Q162.07 4.22 163.26 4.22L163.26 4.22L163.26 4.22Q164.00 4.22 164.69 4.44L164.69 4.44L164.69 4.44Q165.39 4.67 165.87 5.03L165.87 5.03L165.87 5.03Q166.36 5.40 166.69 5.97ZM172.08 4.22L172.08 4.22L172.08 4.22Q173.81 4.22 174.95 5.47L174.95 5.47L174.95 5.47Q176.00 6.61 176.00 8.18L176.00 8.18L176.00 8.18Q176.02 12.07 176.00 12.13L176.00 12.13L176.00 12.13Q175.35 12.13 174.99 12.13L174.99 12.13L174.99 12.13Q174.99 12.08 174.99 10.42L174.99 10.42L174.99 10.42Q174.19 11.92 172.08 12.09L172.08 12.09L172.08 12.09Q170.36 12.09 169.27 10.92L169.27 10.92L169.27 10.92Q168.18 9.75 168.18 8.18L168.18 8.18L168.18 8.18Q168.18 6.62 169.21 5.48L169.21 5.48L169.21 5.48Q170.35 4.22 172.08 4.22ZM172.08 5.16L172.08 5.16L172.08 5.16Q170.88 5.16 170.02 6.05L170.02 6.05L170.02 6.05Q169.16 6.94 169.16 8.20L169.16 8.20L169.16 8.20Q169.16 9.01 169.60 9.76L169.60 9.76L169.60 9.76Q170.04 10.51 171.10 11.03L171.10 11.03L171.10 11.03Q173.74 11.62 174.85 8.63L174.85 8.63L174.85 8.63Q174.91 7.68 174.64 6.80L174.64 6.80L174.64 6.80Q174.45 6.41 174.12 6.05L174.12 6.05L174.12 6.05Q173.28 5.16 172.08 5.16ZM188.57 10.63L188.57 10.63L188.57 10.63Q189.18 9.60 189.31 8.61L189.31 8.61L189.31 8.61Q189.31 1.50 189.31 1.51L189.31 1.51L188.35 1.51L188.35 5.69L188.35 5.69Q187.74 4.95 186.99 4.58L186.99 4.58L186.99 4.58Q186.24 4.22 185.34 4.22L185.34 4.22L185.34 4.22Q183.76 4.22 182.63 5.37L182.63 5.37L182.63 5.37Q181.50 6.53 181.50 8.18L181.50 8.18L181.50 8.18Q181.50 9.80 182.64 10.94L182.64 10.94L182.64 10.94Q183.77 12.09 185.37 12.09L185.37 12.09L185.37 12.09Q186.29 12.09 187.09 11.74L187.09 11.74L187.09 11.74Q187.89 11.39 188.57 10.63ZM185.45 11.17L185.45 11.17L185.45 11.17Q184.64 11.17 183.96 10.77L183.96 10.77L183.96 10.77Q183.28 10.37 182.88 9.66L182.88 9.66L182.88 9.66Q182.47 8.95 182.47 8.14L182.47 8.14L182.47 8.14Q182.47 7.35 182.88 6.62L182.88 6.62L182.88 6.62Q183.29 5.89 183.97 5.49L183.97 5.49L183.97 5.49Q184.66 5.09 185.44 5.09L185.44 5.09L185.44 5.09Q186.23 5.09 186.94 5.49L186.94 5.49L186.94 5.49Q187.65 5.89 188.04 6.58L188.04 6.58L188.04 6.58Q188.42 7.27 188.42 8.11L188.42 8.11L188.42 8.11Q188.42 9.42 187.56 10.29L187.56 10.29L187.56 10.29Q186.70 11.17 185.45 11.17ZM197.59 9.42L197.59 9.42L198.40 9.85L198.40 9.85Q198.01 10.64 197.48 11.12L197.48 11.12L197.48 11.12Q196.96 11.59 196.30 11.84L196.30 11.84L196.30 11.84Q195.64 12.09 194.82 12.09L194.82 12.09L194.82 12.09Q192.99 12.09 191.95 10.89L191.95 10.89L191.95 10.89Q190.92 9.69 190.92 8.18L190.92 8.18L190.92 8.18Q190.92 6.75 191.80 5.64L191.80 5.64L191.80 5.64Q192.90 4.22 194.77 4.22L194.77 4.22L194.77 4.22Q196.68 4.22 197.83 5.67L197.83 5.67L197.83 5.67Q198.64 6.70 198.65 8.23L198.65 8.23L191.91 8.23L191.91 8.23Q191.94 9.54 192.75 10.38L192.75 10.38L192.75 10.38Q193.55 11.22 194.74 11.22L194.74 11.22L194.74 11.22Q195.31 11.22 195.85 11.02L195.85 11.02L195.85 11.02Q196.39 10.81 196.77 10.49L196.77 10.49L196.77 10.49Q197.15 10.16 197.59 9.42ZM192.01 7.40L197.59 7.40L197.59 7.40Q197.40 6.63 197.03 6.17L197.03 6.17L197.03 6.17Q196.66 5.71 196.05 5.42L196.05 5.42L196.05 5.42Q195.45 5.14 194.78 5.14L194.78 5.14L194.78 5.14Q193.68 5.14 192.88 5.85L192.88 5.85L192.88 5.85Q192.31 6.37 192.01 7.40L192.01 7.40ZM207.74 4.22L207.74 4.22L207.74 4.22Q209.47 4.22 210.62 5.47L210.62 5.47L210.62 5.47Q211.67 6.61 211.67 8.18L211.67 8.18L211.67 8.18Q211.68 12.07 211.67 12.13L211.67 12.13L211.67 12.13Q211.01 12.13 210.65 12.13L210.65 12.13L210.65 12.13Q210.65 12.08 210.65 10.42L210.65 10.42L210.65 10.42Q209.85 11.92 207.74 12.09L207.74 12.09L207.74 12.09Q206.02 12.09 204.93 10.92L204.93 10.92L204.93 10.92Q203.84 9.75 203.84 8.18L203.84 8.18L203.84 8.18Q203.84 6.62 204.87 5.48L204.87 5.48L204.87 5.48Q206.01 4.22 207.74 4.22ZM207.74 5.16L207.74 5.16L207.74 5.16Q206.55 5.16 205.69 6.05L205.69 6.05L205.69 6.05Q204.83 6.94 204.83 8.20L204.83 8.20L204.83 8.20Q204.83 9.01 205.27 9.76L205.27 9.76L205.27 9.76Q205.71 10.51 206.76 11.03L206.76 11.03L206.76 11.03Q209.40 11.62 210.51 8.63L210.51 8.63L210.51 8.63Q210.57 7.68 210.31 6.80L210.31 6.80L210.31 6.80Q210.12 6.41 209.78 6.05L209.78 6.05L209.78 6.05Q208.94 5.16 207.74 5.16ZM220.97 10.38L220.97 10.38L220.97 10.38Q220.97 11.96 220.69 12.69L220.69 12.69L220.69 12.69Q220.32 13.73 219.38 14.28L219.38 14.28L219.38 14.28Q218.44 14.84 217.12 14.84L217.12 14.84L217.12 14.84Q216.15 14.84 215.39 14.57L215.39 14.57L215.39 14.57Q214.62 14.29 214.14 13.84L214.14 13.84L214.14 13.84Q213.65 13.38 213.25 12.50L213.25 12.50L214.29 12.50L214.29 12.50Q214.72 13.24 215.40 13.60L215.40 13.60L215.40 13.60Q216.07 13.95 217.08 13.95L217.08 13.95L217.08 13.95Q218.06 13.95 218.74 13.58L218.74 13.58L218.74 13.58Q219.42 13.21 219.71 12.66L219.71 12.66L219.71 12.66Q219.99 12.11 219.99 10.86L219.99 10.86L219.99 10.48L219.99 10.48Q219.45 11.17 218.66 11.54L218.66 11.54L218.66 11.54Q217.88 11.91 217 11.91L217 11.91L217 11.91Q215.97 11.91 215.06 11.40L215.06 11.40L215.06 11.40Q214.14 10.88 213.65 10.01L213.65 10.01L213.65 10.01Q213.15 9.14 213.15 8.10L213.15 8.10L213.15 8.10Q213.15 7.06 213.67 6.16L213.67 6.16L213.67 6.16Q214.18 5.26 215.10 4.74L215.10 4.74L215.10 4.74Q216.02 4.22 217.02 4.22L217.02 4.22L217.02 4.22Q217.87 4.22 218.56 4.48L218.56 4.48L218.56 4.48Q219.14 4.69 219.93 5.29L219.93 5.29L219.93 5.29Q220.60 5.84 220.99 7.40L220.99 7.40L220.99 7.40Q220.97 7.61 220.97 10.38ZM217.14 5.15L217.14 5.15L217.14 5.15Q216.32 5.15 215.62 5.54L215.62 5.54L215.62 5.54Q214.92 5.94 214.52 6.64L214.52 6.64L214.52 6.64Q214.12 7.33 214.12 8.15L214.12 8.15L214.12 8.15Q214.12 9.39 214.95 10.19L214.95 10.19L214.95 10.19Q215.78 11.00 217.09 11.00L217.09 11.00L217.09 11.00Q218.43 11.00 219.24 10.20L219.24 10.20L219.24 10.20Q220.04 9.40 220.04 8.09L220.04 8.09L220.04 8.09Q220.04 7.25 219.67 6.58L219.67 6.58L219.67 6.58Q219.30 5.92 218.62 5.53L218.62 5.53L218.62 5.53Q217.94 5.15 217.14 5.15ZM222.89 8.02L222.89 4.41L223.86 4.41L223.86 7.91L223.86 7.91Q223.86 9.19 224 9.67L224 9.67L224 9.67Q224.21 10.36 224.79 10.76L224.79 10.76L224.79 10.76Q225.37 11.16 226.18 11.16L226.18 11.16L226.18 11.16Q226.99 11.16 227.55 10.77L227.55 10.77L227.55 10.77Q228.11 10.38 228.32 9.75L228.32 9.75L228.32 9.75Q228.47 9.32 228.47 7.91L228.47 7.91L228.47 4.41L229.46 4.41L229.46 8.09L229.46 8.09Q229.46 9.65 229.09 10.43L229.09 10.43L229.09 10.43Q228.72 11.21 228.00 11.65L228.00 11.65L228.00 11.65Q227.27 12.09 226.18 12.09L226.18 12.09L226.18 12.09Q225.08 12.09 224.35 11.65L224.35 11.65L224.35 11.65Q223.62 11.21 223.25 10.41L223.25 10.41L223.25 10.41Q222.89 9.62 222.89 8.02L222.89 8.02ZM235.13 4.22L235.13 4.22L235.13 4.22Q236.86 4.22 238 5.47L238 5.47L238 5.47Q239.05 6.61 239.05 8.18L239.05 8.18L239.05 8.18Q239.07 12.07 239.05 12.13L239.05 12.13L239.05 12.13Q238.40 12.13 238.03 12.13L238.03 12.13L238.03 12.13Q238.03 12.08 238.03 10.42L238.03 10.42L238.03 10.42Q237.23 11.92 235.13 12.09L235.13 12.09L235.13 12.09Q233.41 12.09 232.32 10.92L232.32 10.92L232.32 10.92Q231.23 9.75 231.23 8.18L231.23 8.18L231.23 8.18Q231.23 6.62 232.26 5.48L232.26 5.48L232.26 5.48Q233.40 4.22 235.13 4.22ZM235.13 5.16L235.13 5.16L235.13 5.16Q233.93 5.16 233.07 6.05L233.07 6.05L233.07 6.05Q232.21 6.94 232.21 8.20L232.21 8.20L232.21 8.20Q232.21 9.01 232.65 9.76L232.65 9.76L232.65 9.76Q233.09 10.51 234.14 11.03L234.14 11.03L234.14 11.03Q236.78 11.62 237.90 8.63L237.90 8.63L237.90 8.63Q237.96 7.68 237.69 6.80L237.69 6.80L237.69 6.80Q237.50 6.41 237.17 6.05L237.17 6.05L237.17 6.05Q236.33 5.16 235.13 5.16ZM244.69 5.23L244.69 5.23L244.08 5.87L244.08 5.87Q243.30 5.12 242.57 5.12L242.57 5.12L242.57 5.12Q242.09 5.12 241.76 5.43L241.76 5.43L241.76 5.43Q241.42 5.74 241.42 6.16L241.42 6.16L241.42 6.16Q241.42 6.51 241.71 6.84L241.71 6.84L241.71 6.84Q241.98 7.19 242.86 7.64L242.86 7.64L242.86 7.64Q243.94 8.20 244.32 8.72L244.32 8.72L244.32 8.72Q244.70 9.24 244.70 9.90L244.70 9.90L244.70 9.90Q244.70 10.81 244.05 11.45L244.05 11.45L244.05 11.45Q243.41 12.09 242.44 12.09L242.44 12.09L242.44 12.09Q241.79 12.09 241.20 11.82L241.20 11.82L241.20 11.82Q240.60 11.54 240.22 11.04L240.22 11.04L240.83 10.35L240.83 10.35Q241.57 11.18 242.40 11.18L242.40 11.18L242.40 11.18Q242.97 11.18 243.38 10.81L243.38 10.81L243.38 10.81Q243.78 10.44 243.78 9.94L243.78 9.94L243.78 9.94Q243.78 9.52 243.52 9.20L243.52 9.20L243.52 9.20Q243.25 8.88 242.31 8.39L242.31 8.39L242.31 8.39Q241.29 7.88 240.93 7.36L240.93 7.36L240.93 7.36Q240.56 6.86 240.56 6.20L240.56 6.20L240.56 6.20Q240.56 5.35 241.14 4.78L241.14 4.78L241.14 4.78Q241.73 4.22 242.61 4.22L242.61 4.22L242.61 4.22Q243.64 4.22 244.69 5.23ZM253.92 5.23L253.92 5.23L253.31 5.87L253.31 5.87Q252.53 5.12 251.79 5.12L251.79 5.12L251.79 5.12Q251.32 5.12 250.99 5.43L250.99 5.43L250.99 5.43Q250.65 5.74 250.65 6.16L250.65 6.16L250.65 6.16Q250.65 6.51 250.93 6.84L250.93 6.84L250.93 6.84Q251.21 7.19 252.09 7.64L252.09 7.64L252.09 7.64Q253.17 8.20 253.55 8.72L253.55 8.72L253.55 8.72Q253.93 9.24 253.93 9.90L253.93 9.90L253.93 9.90Q253.93 10.81 253.28 11.45L253.28 11.45L253.28 11.45Q252.64 12.09 251.67 12.09L251.67 12.09L251.67 12.09Q251.02 12.09 250.42 11.82L250.42 11.82L250.42 11.82Q249.83 11.54 249.45 11.04L249.45 11.04L250.06 10.35L250.06 10.35Q250.80 11.18 251.62 11.18L251.62 11.18L251.62 11.18Q252.20 11.18 252.60 10.81L252.60 10.81L252.60 10.81Q253.01 10.44 253.01 9.94L253.01 9.94L253.01 9.94Q253.01 9.52 252.75 9.20L252.75 9.20L252.75 9.20Q252.48 8.88 251.54 8.39L251.54 8.39L251.54 8.39Q250.52 7.88 250.15 7.36L250.15 7.36L250.15 7.36Q249.79 6.86 249.79 6.20L249.79 6.20L249.79 6.20Q249.79 5.35 250.37 4.78L250.37 4.78L250.37 4.78Q250.95 4.22 251.84 4.22L251.84 4.22L251.84 4.22Q252.87 4.22 253.92 5.23ZM255.49 8.02L255.49 4.41L256.46 4.41L256.46 7.91L256.46 7.91Q256.46 9.19 256.60 9.67L256.60 9.67L256.60 9.67Q256.81 10.36 257.39 10.76L257.39 10.76L257.39 10.76Q257.97 11.16 258.78 11.16L258.78 11.16L258.78 11.16Q259.59 11.16 260.15 10.77L260.15 10.77L260.15 10.77Q260.71 10.38 260.92 9.75L260.92 9.75L260.92 9.75Q261.07 9.32 261.07 7.91L261.07 7.91L261.07 4.41L262.06 4.41L262.06 8.09L262.06 8.09Q262.06 9.65 261.69 10.43L261.69 10.43L261.69 10.43Q261.32 11.21 260.60 11.65L260.60 11.65L260.60 11.65Q259.88 12.09 258.78 12.09L258.78 12.09L258.78 12.09Q257.68 12.09 256.95 11.65L256.95 11.65L256.95 11.65Q256.22 11.21 255.86 10.41L255.86 10.41L255.86 10.41Q255.49 9.62 255.49 8.02L255.49 8.02ZM264.79 10.63L264.79 10.63L264.79 10.63Q264.17 9.60 264.05 8.61L264.05 8.61L264.05 8.61Q264.05 1.50 264.05 1.51L264.05 1.51L265.01 1.51L265.01 5.69L265.01 5.69Q265.62 4.95 266.37 4.58L266.37 4.58L266.37 4.58Q267.12 4.22 268.02 4.22L268.02 4.22L268.02 4.22Q269.60 4.22 270.73 5.37L270.73 5.37L270.73 5.37Q271.86 6.53 271.86 8.18L271.86 8.18L271.86 8.18Q271.86 9.80 270.72 10.94L270.72 10.94L270.72 10.94Q269.59 12.09 267.99 12.09L267.99 12.09L267.99 12.09Q267.07 12.09 266.27 11.74L266.27 11.74L266.27 11.74Q265.47 11.39 264.79 10.63ZM267.91 11.17L267.91 11.17L267.91 11.17Q268.72 11.17 269.40 10.77L269.40 10.77L269.40 10.77Q270.08 10.37 270.48 9.66L270.48 9.66L270.48 9.66Q270.89 8.95 270.89 8.14L270.89 8.14L270.89 8.14Q270.89 7.35 270.48 6.62L270.48 6.62L270.48 6.62Q270.07 5.89 269.39 5.49L269.39 5.49L269.39 5.49Q268.70 5.09 267.92 5.09L267.92 5.09L267.92 5.09Q267.13 5.09 266.42 5.49L266.42 5.49L266.42 5.49Q265.71 5.89 265.32 6.58L265.32 6.58L265.32 6.58Q264.94 7.27 264.94 8.11L264.94 8.11L264.94 8.11Q264.94 9.42 265.80 10.29L265.80 10.29L265.80 10.29Q266.66 11.17 267.91 11.17ZM276.49 11.03L276.49 11.03L276.49 11.03Q275.78 11.41 275.10 11.09L275.10 11.09L275.10 11.09Q274.26 10.45 274.31 9.28L274.31 9.28L274.31 6.10L276.08 6.10L276.08 5.28L274.30 5.28L274.30 1.65L273.33 1.65L273.33 9.44L273.33 9.44Q273.31 10.26 273.70 10.94L273.70 10.94L273.70 10.94Q274.35 12.03 275.45 12.09L275.45 12.09L275.45 12.09Q276.04 12.11 276.79 11.83L276.79 11.83L276.79 11.83Q276.68 11.54 276.49 11.03ZM284.64 9.42L284.64 9.42L285.45 9.85L285.45 9.85Q285.06 10.64 284.53 11.12L284.53 11.12L284.53 11.12Q284.01 11.59 283.35 11.84L283.35 11.84L283.35 11.84Q282.69 12.09 281.87 12.09L281.87 12.09L281.87 12.09Q280.03 12.09 279.00 10.89L279.00 10.89L279.00 10.89Q277.97 9.69 277.97 8.18L277.97 8.18L277.97 8.18Q277.97 6.75 278.84 5.64L278.84 5.64L278.84 5.64Q279.95 4.22 281.82 4.22L281.82 4.22L281.82 4.22Q283.73 4.22 284.87 5.67L284.87 5.67L284.87 5.67Q285.69 6.70 285.69 8.23L285.69 8.23L278.96 8.23L278.96 8.23Q278.99 9.54 279.79 10.38L279.79 10.38L279.79 10.38Q280.60 11.22 281.78 11.22L281.78 11.22L281.78 11.22Q282.36 11.22 282.90 11.02L282.90 11.02L282.90 11.02Q283.44 10.81 283.82 10.49L283.82 10.49L283.82 10.49Q284.20 10.16 284.64 9.42ZM279.06 7.40L284.64 7.40L284.64 7.40Q284.45 6.63 284.08 6.17L284.08 6.17L284.08 6.17Q283.71 5.71 283.10 5.42L283.10 5.42L283.10 5.42Q282.50 5.14 281.83 5.14L281.83 5.14L281.83 5.14Q280.72 5.14 279.93 5.85L279.93 5.85L279.93 5.85Q279.36 6.37 279.06 7.40L279.06 7.40ZM287.12 12.07L287.12 8.65L287.12 7.75L287.12 7.75Q287.23 7.08 287.44 6.65L287.44 6.65L287.44 6.65Q287.92 5.48 288.72 4.93L288.72 4.93L288.72 4.93Q289.53 4.38 290.06 4.38L290.06 4.38L290.06 4.38Q290.46 4.38 290.91 4.64L290.91 4.64L290.41 5.45L290.41 5.45Q289.78 5.22 289.15 5.82L289.15 5.82L289.15 5.82Q288.52 6.43 288.29 7.15L288.29 7.15L288.29 7.15Q288.11 7.79 288.11 9.54L288.11 9.54L288.11 12.07L287.12 12.07ZM291.36 12.07L291.36 8.65L291.36 7.75L291.36 7.75Q291.47 7.08 291.68 6.65L291.68 6.65L291.68 6.65Q292.15 5.48 292.96 4.93L292.96 4.93L292.96 4.93Q293.77 4.38 294.30 4.38L294.30 4.38L294.30 4.38Q294.70 4.38 295.15 4.64L295.15 4.64L294.65 5.45L294.65 5.45Q294.01 5.22 293.39 5.82L293.39 5.82L293.39 5.82Q292.76 6.43 292.52 7.15L292.52 7.15L292.52 7.15Q292.35 7.79 292.35 9.54L292.35 9.54L292.35 12.07L291.36 12.07ZM299.51 4.22L299.51 4.22L299.51 4.22Q301.24 4.22 302.38 5.47L302.38 5.47L302.38 5.47Q303.43 6.61 303.43 8.18L303.43 8.18L303.43 8.18Q303.45 12.07 303.43 12.13L303.43 12.13L303.43 12.13Q302.78 12.13 302.42 12.13L302.42 12.13L302.42 12.13Q302.42 12.08 302.42 10.42L302.42 10.42L302.42 10.42Q301.62 11.92 299.51 12.09L299.51 12.09L299.51 12.09Q297.79 12.09 296.70 10.92L296.70 10.92L296.70 10.92Q295.61 9.75 295.61 8.18L295.61 8.18L295.61 8.18Q295.61 6.62 296.64 5.48L296.64 5.48L296.64 5.48Q297.78 4.22 299.51 4.22ZM299.51 5.16L299.51 5.16L299.51 5.16Q298.31 5.16 297.45 6.05L297.45 6.05L297.45 6.05Q296.59 6.94 296.59 8.20L296.59 8.20L296.59 8.20Q296.59 9.01 297.03 9.76L297.03 9.76L297.03 9.76Q297.47 10.51 298.53 11.03L298.53 11.03L298.53 11.03Q301.16 11.62 302.28 8.63L302.28 8.63L302.28 8.63Q302.34 7.68 302.07 6.80L302.07 6.80L302.07 6.80Q301.88 6.41 301.55 6.05L301.55 6.05L301.55 6.05Q300.71 5.16 299.51 5.16ZM305.30 12.09L305.30 9.24L305.29 8.44L305.29 8.44Q305.27 7.85 305.33 7.44L305.33 7.44L305.33 7.44Q305.48 6.15 305.99 5.55L305.99 5.55L305.99 5.55Q306.48 5.02 307.00 4.74L307.00 4.74L307.00 4.74Q307.84 4.38 308.93 4.40L308.93 4.40L308.93 4.40Q309.78 4.40 310.50 4.82L310.50 4.82L310.50 4.82Q311.22 5.25 311.53 5.97L311.53 5.97L311.53 5.97Q311.83 6.69 311.83 8.23L311.83 8.23L311.83 12.09L310.88 12.09L310.88 8.51L310.88 8.51Q310.88 7.21 310.77 6.77L310.77 6.77L310.77 6.77Q310.60 6.03 310.09 5.72L310.09 5.72L310.09 5.72Q309.59 5.41 308.59 5.41L308.59 5.41L308.59 5.41Q307.72 5.41 307.04 5.91L307.04 5.91L307.04 5.91Q306.35 6.42 306.40 7.29L306.40 7.29L306.40 7.29Q306.27 7.85 306.27 9.34L306.27 9.34L306.27 12.09L305.30 12.09ZM320.20 9.42L320.20 9.42L321.01 9.85L321.01 9.85Q320.62 10.64 320.09 11.12L320.09 11.12L320.09 11.12Q319.57 11.59 318.91 11.84L318.91 11.84L318.91 11.84Q318.25 12.09 317.43 12.09L317.43 12.09L317.43 12.09Q315.59 12.09 314.56 10.89L314.56 10.89L314.56 10.89Q313.53 9.69 313.53 8.18L313.53 8.18L313.53 8.18Q313.53 6.75 314.41 5.64L314.41 5.64L314.41 5.64Q315.51 4.22 317.38 4.22L317.38 4.22L317.38 4.22Q319.29 4.22 320.43 5.67L320.43 5.67L320.43 5.67Q321.25 6.70 321.25 8.23L321.25 8.23L314.52 8.23L314.52 8.23Q314.55 9.54 315.36 10.38L315.36 10.38L315.36 10.38Q316.16 11.22 317.34 11.22L317.34 11.22L317.34 11.22Q317.92 11.22 318.46 11.02L318.46 11.02L318.46 11.02Q319.00 10.81 319.38 10.49L319.38 10.49L319.38 10.49Q319.76 10.16 320.20 9.42ZM314.62 7.40L320.20 7.40L320.20 7.40Q320.01 6.63 319.64 6.17L319.64 6.17L319.64 6.17Q319.27 5.71 318.66 5.42L318.66 5.42L318.66 5.42Q318.06 5.14 317.39 5.14L317.39 5.14L317.39 5.14Q316.29 5.14 315.49 5.85L315.49 5.85L315.49 5.85Q314.92 6.37 314.62 7.40L314.62 7.40ZM326.59 4.22L326.59 4.22L326.59 4.22Q328.32 4.22 329.46 5.47L329.46 5.47L329.46 5.47Q330.52 6.61 330.52 8.18L330.52 8.18L330.52 8.18Q330.53 12.07 330.52 12.13L330.52 12.13L330.52 12.13Q329.86 12.13 329.50 12.13L329.50 12.13L329.50 12.13Q329.50 12.08 329.50 10.42L329.50 10.42L329.50 10.42Q328.70 11.92 326.59 12.09L326.59 12.09L326.59 12.09Q324.87 12.09 323.78 10.92L323.78 10.92L323.78 10.92Q322.69 9.75 322.69 8.18L322.69 8.18L322.69 8.18Q322.69 6.62 323.72 5.48L323.72 5.48L323.72 5.48Q324.86 4.22 326.59 4.22ZM326.59 5.16L326.59 5.16L326.59 5.16Q325.40 5.16 324.54 6.05L324.54 6.05L324.54 6.05Q323.67 6.94 323.67 8.20L323.67 8.20L323.67 8.20Q323.67 9.01 324.12 9.76L324.12 9.76L324.12 9.76Q324.56 10.51 325.61 11.03L325.61 11.03L325.61 11.03Q328.25 11.62 329.36 8.63L329.36 8.63L329.36 8.63Q329.42 7.68 329.16 6.80L329.16 6.80L329.16 6.80Q328.97 6.41 328.63 6.05L328.63 6.05L328.63 6.05Q327.79 5.16 326.59 5.16ZM336.16 5.23L336.16 5.23L335.54 5.87L335.54 5.87Q334.76 5.12 334.03 5.12L334.03 5.12L334.03 5.12Q333.56 5.12 333.22 5.43L333.22 5.43L333.22 5.43Q332.89 5.74 332.89 6.16L332.89 6.16L332.89 6.16Q332.89 6.51 333.17 6.84L333.17 6.84L333.17 6.84Q333.44 7.19 334.33 7.64L334.33 7.64L334.33 7.64Q335.41 8.20 335.79 8.72L335.79 8.72L335.79 8.72Q336.16 9.24 336.16 9.90L336.16 9.90L336.16 9.90Q336.16 10.81 335.52 11.45L335.52 11.45L335.52 11.45Q334.87 12.09 333.90 12.09L333.90 12.09L333.90 12.09Q333.25 12.09 332.66 11.82L332.66 11.82L332.66 11.82Q332.07 11.54 331.69 11.04L331.69 11.04L332.29 10.35L332.29 10.35Q333.03 11.18 333.86 11.18L333.86 11.18L333.86 11.18Q334.43 11.18 334.84 10.81L334.84 10.81L334.84 10.81Q335.25 10.44 335.25 9.94L335.25 9.94L335.25 9.94Q335.25 9.52 334.98 9.20L334.98 9.20L334.98 9.20Q334.71 8.88 333.77 8.39L333.77 8.39L333.77 8.39Q332.75 7.88 332.39 7.36L332.39 7.36L332.39 7.36Q332.02 6.86 332.02 6.20L332.02 6.20L332.02 6.20Q332.02 5.35 332.61 4.78L332.61 4.78L332.61 4.78Q333.19 4.22 334.07 4.22L334.07 4.22L334.07 4.22Q335.10 4.22 336.16 5.23Z"></path></g></svg>