<svg data-v-423bf9ae="" xmlns="http://www.w3.org/2000/svg" viewBox="0 0 678.0359742533674 60" class="font"><!----><!----><!----><g data-v-423bf9ae="" id="ea341af5-56e1-456d-b0fc-164d267f17db" fill="black" transform="matrix(4.4977510729908285,0,0,4.4977510729908285,-3.418282303330841,-6.746626609486242)"><path d="M10.67 3.88L10.67 3.88L9.86 4.48L9.86 4.48Q9.21 3.62 8.28 3.18L8.28 3.18L8.28 3.18Q7.36 2.73 6.25 2.73L6.25 2.73L6.25 2.73Q5.03 2.73 4.00 3.32L4.00 3.32L4.00 3.32Q2.97 3.90 2.40 4.88L2.40 4.88L2.40 4.88Q1.83 5.86 1.83 7.09L1.83 7.09L1.83 7.09Q1.83 8.94 3.10 10.07L3.10 10.07L3.10 10.07Q4.37 11.20 6.30 11.20L6.30 11.20L6.30 11.20Q8.44 11.20 9.86 9.54L9.86 9.54L10.67 10.14L10.67 10.14Q9.91 11.11 8.78 11.63L8.78 11.63L8.78 11.63Q7.64 12.16 6.25 12.16L6.25 12.16L6.25 12.16Q3.58 12.16 2.04 10.39L2.04 10.39L2.04 10.39Q0.76 8.89 0.76 7L0.76 7L0.76 7Q0.76 4.78 2.32 3.25L2.32 3.25L2.32 3.25Q3.88 1.73 6.23 1.73L6.23 1.73L6.23 1.73Q7.65 1.73 8.79 2.29L8.79 2.29L8.79 2.29Q9.94 2.86 10.67 3.88ZM16.08 4.22L16.08 4.22L16.08 4.22Q17.81 4.22 18.95 5.47L18.95 5.47L18.95 5.47Q19.98 6.62 19.98 8.18L19.98 8.18L19.98 8.18Q19.98 9.75 18.89 10.92L18.89 10.92L18.89 10.92Q17.79 12.09 16.08 12.09L16.08 12.09L16.08 12.09Q14.36 12.09 13.27 10.92L13.27 10.92L13.27 10.92Q12.17 9.75 12.17 8.18L12.17 8.18L12.17 8.18Q12.17 6.62 13.21 5.48L13.21 5.48L13.21 5.48Q14.35 4.22 16.08 4.22ZM16.08 5.16L16.08 5.16L16.08 5.16Q14.88 5.16 14.02 6.05L14.02 6.05L14.02 6.05Q13.16 6.94 13.16 8.20L13.16 8.20L13.16 8.20Q13.16 9.01 13.55 9.72L13.55 9.72L13.55 9.72Q13.95 10.42 14.62 10.80L14.62 10.80L14.62 10.80Q15.29 11.18 16.08 11.18L16.08 11.18L16.08 11.18Q16.88 11.18 17.55 10.80L17.55 10.80L17.55 10.80Q18.22 10.42 18.61 9.72L18.61 9.72L18.61 9.72Q19.00 9.01 19.00 8.20L19.00 8.20L19.00 8.20Q19.00 6.94 18.14 6.05L18.14 6.05L18.14 6.05Q17.27 5.16 16.08 5.16ZM21.75 12.09L21.75 9.24L21.74 8.44L21.74 8.44Q21.72 7.85 21.79 7.44L21.79 7.44L21.79 7.44Q21.94 6.15 22.44 5.55L22.44 5.55L22.44 5.55Q22.93 5.02 23.45 4.74L23.45 4.74L23.45 4.74Q24.29 4.38 25.38 4.40L25.38 4.40L25.38 4.40Q26.23 4.40 26.95 4.82L26.95 4.82L26.95 4.82Q27.67 5.25 27.98 5.97L27.98 5.97L27.98 5.97Q28.29 6.69 28.29 8.23L28.29 8.23L28.29 12.09L27.33 12.09L27.33 8.51L27.33 8.51Q27.33 7.21 27.22 6.77L27.22 6.77L27.22 6.77Q27.05 6.03 26.54 5.72L26.54 5.72L26.54 5.72Q26.04 5.41 25.05 5.41L25.05 5.41L25.05 5.41Q24.17 5.41 23.49 5.91L23.49 5.91L23.49 5.91Q22.80 6.42 22.85 7.29L22.85 7.29L22.85 7.29Q22.72 7.85 22.72 9.34L22.72 9.34L22.72 12.09L21.75 12.09ZM34.11 5.23L34.11 5.23L33.50 5.87L33.50 5.87Q32.72 5.12 31.99 5.12L31.99 5.12L31.99 5.12Q31.51 5.12 31.18 5.43L31.18 5.43L31.18 5.43Q30.84 5.74 30.84 6.16L30.84 6.16L30.84 6.16Q30.84 6.51 31.12 6.84L31.12 6.84L31.12 6.84Q31.40 7.19 32.28 7.64L32.28 7.64L32.28 7.64Q33.36 8.20 33.74 8.72L33.74 8.72L33.74 8.72Q34.12 9.24 34.12 9.90L34.12 9.90L34.12 9.90Q34.12 10.81 33.47 11.45L33.47 11.45L33.47 11.45Q32.83 12.09 31.86 12.09L31.86 12.09L31.86 12.09Q31.21 12.09 30.61 11.82L30.61 11.82L30.61 11.82Q30.02 11.54 29.64 11.04L29.64 11.04L30.25 10.35L30.25 10.35Q30.99 11.18 31.81 11.18L31.81 11.18L31.81 11.18Q32.39 11.18 32.80 10.81L32.80 10.81L32.80 10.81Q33.20 10.44 33.20 9.94L33.20 9.94L33.20 9.94Q33.20 9.52 32.94 9.20L32.94 9.20L32.94 9.20Q32.67 8.88 31.73 8.39L31.73 8.39L31.73 8.39Q30.71 7.88 30.34 7.36L30.34 7.36L30.34 7.36Q29.98 6.86 29.98 6.20L29.98 6.20L29.98 6.20Q29.98 5.35 30.56 4.78L30.56 4.78L30.56 4.78Q31.14 4.22 32.03 4.22L32.03 4.22L32.03 4.22Q33.06 4.22 34.11 5.23ZM39.35 4.22L39.35 4.22L39.35 4.22Q41.08 4.22 42.23 5.47L42.23 5.47L42.23 5.47Q43.26 6.62 43.26 8.18L43.26 8.18L43.26 8.18Q43.26 9.75 42.16 10.92L42.16 10.92L42.16 10.92Q41.07 12.09 39.35 12.09L39.35 12.09L39.35 12.09Q37.63 12.09 36.54 10.92L36.54 10.92L36.54 10.92Q35.45 9.75 35.45 8.18L35.45 8.18L35.45 8.18Q35.45 6.62 36.48 5.48L36.48 5.48L36.48 5.48Q37.63 4.22 39.35 4.22ZM39.35 5.16L39.35 5.16L39.35 5.16Q38.16 5.16 37.30 6.05L37.30 6.05L37.30 6.05Q36.44 6.94 36.44 8.20L36.44 8.20L36.44 8.20Q36.44 9.01 36.83 9.72L36.83 9.72L36.83 9.72Q37.22 10.42 37.89 10.80L37.89 10.80L37.89 10.80Q38.56 11.18 39.35 11.18L39.35 11.18L39.35 11.18Q40.16 11.18 40.83 10.80L40.83 10.80L40.83 10.80Q41.49 10.42 41.88 9.72L41.88 9.72L41.88 9.72Q42.27 9.01 42.27 8.20L42.27 8.20L42.27 8.20Q42.27 6.94 41.41 6.05L41.41 6.05L41.41 6.05Q40.55 5.16 39.35 5.16ZM44.88 12.09L44.88 1.69L45.86 1.69L45.86 12.09L44.88 12.09ZM51.39 4.22L51.39 4.22L51.39 4.22Q53.12 4.22 54.26 5.47L54.26 5.47L54.26 5.47Q55.32 6.61 55.32 8.18L55.32 8.18L55.32 8.18Q55.33 12.07 55.32 12.13L55.32 12.13L55.32 12.13Q54.66 12.13 54.30 12.13L54.30 12.13L54.30 12.13Q54.30 12.08 54.30 10.42L54.30 10.42L54.30 10.42Q53.50 11.92 51.39 12.09L51.39 12.09L51.39 12.09Q49.67 12.09 48.58 10.92L48.58 10.92L48.58 10.92Q47.49 9.75 47.49 8.18L47.49 8.18L47.49 8.18Q47.49 6.62 48.52 5.48L48.52 5.48L48.52 5.48Q49.66 4.22 51.39 4.22ZM51.39 5.16L51.39 5.16L51.39 5.16Q50.20 5.16 49.33 6.05L49.33 6.05L49.33 6.05Q48.47 6.94 48.47 8.20L48.47 8.20L48.47 8.20Q48.47 9.01 48.91 9.76L48.91 9.76L48.91 9.76Q49.36 10.51 50.41 11.03L50.41 11.03L50.41 11.03Q53.05 11.62 54.16 8.63L54.16 8.63L54.16 8.63Q54.22 7.68 53.96 6.80L53.96 6.80L53.96 6.80Q53.76 6.41 53.43 6.05L53.43 6.05L53.43 6.05Q52.59 5.16 51.39 5.16ZM57.18 12.09L57.18 9.24L57.17 8.44L57.17 8.44Q57.15 7.85 57.22 7.44L57.22 7.44L57.22 7.44Q57.37 6.15 57.87 5.55L57.87 5.55L57.87 5.55Q58.37 5.02 58.88 4.74L58.88 4.74L58.88 4.74Q59.73 4.38 60.81 4.40L60.81 4.40L60.81 4.40Q61.66 4.40 62.38 4.82L62.38 4.82L62.38 4.82Q63.10 5.25 63.41 5.97L63.41 5.97L63.41 5.97Q63.72 6.69 63.72 8.23L63.72 8.23L63.72 12.09L62.76 12.09L62.76 8.51L62.76 8.51Q62.76 7.21 62.65 6.77L62.65 6.77L62.65 6.77Q62.48 6.03 61.97 5.72L61.97 5.72L61.97 5.72Q61.47 5.41 60.48 5.41L60.48 5.41L60.48 5.41Q59.60 5.41 58.92 5.91L58.92 5.91L58.92 5.91Q58.24 6.42 58.28 7.29L58.28 7.29L58.28 7.29Q58.15 7.85 58.15 9.34L58.15 9.34L58.15 12.09L57.18 12.09ZM66.11 1.50L66.11 1.50L66.11 1.50Q66.44 1.50 66.67 1.74L66.67 1.74L66.67 1.74Q66.91 1.97 66.91 2.30L66.91 2.30L66.91 2.30Q66.91 2.63 66.67 2.86L66.67 2.86L66.67 2.86Q66.44 3.10 66.11 3.10L66.11 3.10L66.11 3.10Q65.78 3.10 65.55 2.86L65.55 2.86L65.55 2.86Q65.32 2.63 65.32 2.30L65.32 2.30L65.32 2.30Q65.32 1.97 65.55 1.74L65.55 1.74L65.55 1.74Q65.78 1.50 66.11 1.50ZM65.63 12.09L65.63 4.59L66.60 4.59L66.60 12.09L65.63 12.09ZM75.63 1.91L75.88 1.91L80.60 12.04L79.52 12.04L77.93 8.70L73.55 8.70L71.98 12.04L70.84 12.04L75.63 1.91ZM77.48 7.73L75.76 4.05L74.01 7.73L77.48 7.73ZM89.45 10.38L89.45 10.38L89.45 10.38Q89.45 11.96 89.17 12.69L89.17 12.69L89.17 12.69Q88.79 13.73 87.85 14.28L87.85 14.28L87.85 14.28Q86.91 14.84 85.60 14.84L85.60 14.84L85.60 14.84Q84.63 14.84 83.86 14.57L83.86 14.57L83.86 14.57Q83.10 14.29 82.61 13.84L82.61 13.84L82.61 13.84Q82.13 13.38 81.72 12.50L81.72 12.50L82.77 12.50L82.77 12.50Q83.20 13.24 83.87 13.60L83.87 13.60L83.87 13.60Q84.55 13.95 85.55 13.95L85.55 13.95L85.55 13.95Q86.54 13.95 87.22 13.58L87.22 13.58L87.22 13.58Q87.90 13.21 88.18 12.66L88.18 12.66L88.18 12.66Q88.47 12.11 88.47 10.86L88.47 10.86L88.47 10.48L88.47 10.48Q87.93 11.17 87.14 11.54L87.14 11.54L87.14 11.54Q86.35 11.91 85.48 11.91L85.48 11.91L85.48 11.91Q84.44 11.91 83.53 11.40L83.53 11.40L83.53 11.40Q82.62 10.88 82.12 10.01L82.12 10.01L82.12 10.01Q81.63 9.14 81.63 8.10L81.63 8.10L81.63 8.10Q81.63 7.06 82.14 6.16L82.14 6.16L82.14 6.16Q82.66 5.26 83.58 4.74L83.58 4.74L83.58 4.74Q84.49 4.22 85.50 4.22L85.50 4.22L85.50 4.22Q86.34 4.22 87.04 4.48L87.04 4.48L87.04 4.48Q87.62 4.69 88.41 5.29L88.41 5.29L88.41 5.29Q89.08 5.84 89.46 7.40L89.46 7.40L89.46 7.40Q89.45 7.61 89.45 10.38ZM85.62 5.15L85.62 5.15L85.62 5.15Q84.80 5.15 84.10 5.54L84.10 5.54L84.10 5.54Q83.40 5.94 83.00 6.64L83.00 6.64L83.00 6.64Q82.60 7.33 82.60 8.15L82.60 8.15L82.60 8.15Q82.60 9.39 83.43 10.19L83.43 10.19L83.43 10.19Q84.25 11.00 85.57 11.00L85.57 11.00L85.57 11.00Q86.91 11.00 87.71 10.20L87.71 10.20L87.71 10.20Q88.52 9.40 88.52 8.09L88.52 8.09L88.52 8.09Q88.52 7.25 88.15 6.58L88.15 6.58L88.15 6.58Q87.77 5.92 87.09 5.53L87.09 5.53L87.09 5.53Q86.41 5.15 85.62 5.15ZM91.37 8.02L91.37 4.41L92.34 4.41L92.34 7.91L92.34 7.91Q92.34 9.19 92.48 9.67L92.48 9.67L92.48 9.67Q92.68 10.36 93.26 10.76L93.26 10.76L93.26 10.76Q93.84 11.16 94.66 11.16L94.66 11.16L94.66 11.16Q95.46 11.16 96.02 10.77L96.02 10.77L96.02 10.77Q96.58 10.38 96.80 9.75L96.80 9.75L96.80 9.75Q96.95 9.32 96.95 7.91L96.95 7.91L96.95 4.41L97.93 4.41L97.93 8.09L97.93 8.09Q97.93 9.65 97.57 10.43L97.57 10.43L97.57 10.43Q97.20 11.21 96.48 11.65L96.48 11.65L96.48 11.65Q95.75 12.09 94.66 12.09L94.66 12.09L94.66 12.09Q93.56 12.09 92.83 11.65L92.83 11.65L92.83 11.65Q92.09 11.21 91.73 10.41L91.73 10.41L91.73 10.41Q91.37 9.62 91.37 8.02L91.37 8.02ZM103.61 4.22L103.61 4.22L103.61 4.22Q105.33 4.22 106.48 5.47L106.48 5.47L106.48 5.47Q107.53 6.61 107.53 8.18L107.53 8.18L107.53 8.18Q107.54 12.07 107.53 12.13L107.53 12.13L107.53 12.13Q106.87 12.13 106.51 12.13L106.51 12.13L106.51 12.13Q106.51 12.08 106.51 10.42L106.51 10.42L106.51 10.42Q105.71 11.92 103.61 12.09L103.61 12.09L103.61 12.09Q101.88 12.09 100.79 10.92L100.79 10.92L100.79 10.92Q99.70 9.75 99.70 8.18L99.70 8.18L99.70 8.18Q99.70 6.62 100.73 5.48L100.73 5.48L100.73 5.48Q101.88 4.22 103.61 4.22ZM103.61 5.16L103.61 5.16L103.61 5.16Q102.41 5.16 101.55 6.05L101.55 6.05L101.55 6.05Q100.69 6.94 100.69 8.20L100.69 8.20L100.69 8.20Q100.69 9.01 101.13 9.76L101.13 9.76L101.13 9.76Q101.57 10.51 102.62 11.03L102.62 11.03L102.62 11.03Q105.26 11.62 106.37 8.63L106.37 8.63L106.37 8.63Q106.44 7.68 106.17 6.80L106.17 6.80L106.17 6.80Q105.98 6.41 105.64 6.05L105.64 6.05L105.64 6.05Q104.80 5.16 103.61 5.16ZM116.54 12.04L113.31 12.04L113.31 1.91L115.41 1.91L115.41 1.91Q117.69 1.91 118.72 2.28L118.72 2.28L118.72 2.28Q120.19 2.79 121.02 4.06L121.02 4.06L121.02 4.06Q121.85 5.34 121.85 7.10L121.85 7.10L121.85 7.10Q121.85 8.62 121.19 9.78L121.19 9.78L121.19 9.78Q120.53 10.94 119.48 11.49L119.48 11.49L119.48 11.49Q118.43 12.04 116.54 12.04L116.54 12.04ZM114.28 2.89L114.28 11.08L115.45 11.08L115.45 11.08Q117.55 11.08 118.37 10.82L118.37 10.82L118.37 10.82Q119.51 10.45 120.17 9.48L120.17 9.48L120.17 9.48Q120.83 8.52 120.83 7.12L120.83 7.12L120.83 7.12Q120.83 5.65 120.12 4.61L120.12 4.61L120.12 4.61Q119.41 3.57 118.14 3.19L118.14 3.19L118.14 3.19Q117.18 2.89 115.00 2.89L115.00 2.89L114.28 2.89ZM123.52 8.02L123.52 4.41L124.49 4.41L124.49 7.91L124.49 7.91Q124.49 9.19 124.63 9.67L124.63 9.67L124.63 9.67Q124.83 10.36 125.41 10.76L125.41 10.76L125.41 10.76Q125.99 11.16 126.81 11.16L126.81 11.16L126.81 11.16Q127.61 11.16 128.17 10.77L128.17 10.77L128.17 10.77Q128.73 10.38 128.95 9.75L128.95 9.75L128.95 9.75Q129.10 9.32 129.10 7.91L129.10 7.91L129.10 4.41L130.08 4.41L130.08 8.09L130.08 8.09Q130.08 9.65 129.72 10.43L129.72 10.43L129.72 10.43Q129.35 11.21 128.63 11.65L128.63 11.65L128.63 11.65Q127.90 12.09 126.81 12.09L126.81 12.09L126.81 12.09Q125.71 12.09 124.97 11.65L124.97 11.65L124.97 11.65Q124.24 11.21 123.88 10.41L123.88 10.41L123.88 10.41Q123.52 9.62 123.52 8.02L123.52 8.02ZM132.06 12.09L132.06 1.69L133.03 1.69L133.03 12.09L132.06 12.09ZM142.30 5.97L142.30 5.97L141.54 6.45L141.54 6.45Q140.55 5.12 138.83 5.12L138.83 5.12L138.83 5.12Q137.46 5.12 136.55 6.00L136.55 6.00L136.55 6.00Q135.65 6.88 135.65 8.15L135.65 8.15L135.65 8.15Q135.65 8.97 136.06 9.70L136.06 9.70L136.06 9.70Q136.48 10.42 137.20 10.82L137.20 10.82L137.20 10.82Q137.93 11.22 138.83 11.22L138.83 11.22L138.83 11.22Q140.49 11.22 141.54 9.91L141.54 9.91L142.30 10.40L142.30 10.40Q141.76 11.21 140.86 11.65L140.86 11.65L140.86 11.65Q139.95 12.09 138.79 12.09L138.79 12.09L138.79 12.09Q137.02 12.09 135.85 10.96L135.85 10.96L135.85 10.96Q134.67 9.84 134.67 8.22L134.67 8.22L134.67 8.22Q134.67 7.13 135.23 6.20L135.23 6.20L135.23 6.20Q135.78 5.26 136.73 4.74L136.73 4.74L136.73 4.74Q137.68 4.22 138.87 4.22L138.87 4.22L138.87 4.22Q139.61 4.22 140.30 4.44L140.30 4.44L140.30 4.44Q141.00 4.67 141.48 5.03L141.48 5.03L141.48 5.03Q141.97 5.40 142.30 5.97ZM150.46 9.42L150.46 9.42L151.27 9.85L151.27 9.85Q150.88 10.64 150.35 11.12L150.35 11.12L150.35 11.12Q149.82 11.59 149.17 11.84L149.17 11.84L149.17 11.84Q148.51 12.09 147.68 12.09L147.68 12.09L147.68 12.09Q145.85 12.09 144.82 10.89L144.82 10.89L144.82 10.89Q143.79 9.69 143.79 8.18L143.79 8.18L143.79 8.18Q143.79 6.75 144.66 5.64L144.66 5.64L144.66 5.64Q145.77 4.22 147.64 4.22L147.64 4.22L147.64 4.22Q149.54 4.22 150.69 5.67L150.69 5.67L150.69 5.67Q151.50 6.70 151.51 8.23L151.51 8.23L144.78 8.23L144.78 8.23Q144.81 9.54 145.61 10.38L145.61 10.38L145.61 10.38Q146.42 11.22 147.60 11.22L147.60 11.22L147.60 11.22Q148.18 11.22 148.72 11.02L148.72 11.02L148.72 11.02Q149.26 10.81 149.64 10.49L149.64 10.49L149.64 10.49Q150.01 10.16 150.46 9.42ZM144.88 7.40L150.46 7.40L150.46 7.40Q150.27 6.63 149.90 6.17L149.90 6.17L149.90 6.17Q149.53 5.71 148.92 5.42L148.92 5.42L148.92 5.42Q148.31 5.14 147.64 5.14L147.64 5.14L147.64 5.14Q146.54 5.14 145.75 5.85L145.75 5.85L145.75 5.85Q145.17 6.37 144.88 7.40L144.88 7.40Z"></path></g><!----><!----></svg>