<svg width="602" height="602" xmlns="http://www.w3.org/2000/svg">
 <!-- Created with Method Draw - http://github.com/duopixel/Method-Draw/ -->

 <g>
  <title>background</title>
  <rect fill="none" id="canvas_background" height="604" width="604" y="-1" x="-1"/>
  <g display="none" overflow="visible" y="0" x="0" height="100%" width="100%" id="canvasGrid">
   <rect fill="url(#gridpattern)" stroke-width="0" y="1" x="1" height="600" width="600"/>
  </g>
 </g>
 <g>
  <title>Layer 1</title>
  <!---->
  <!---->
  <!---->
  <!---->
  <!---->
  <g id="svg_54">
   <ellipse stroke="#ffffff" ry="257.361929" rx="253.752372" id="svg_50" cy="300.184456" cx="299.940275" stroke-width="18" fill="none"/>
   <ellipse stroke="#000" ry="268.221363" rx="268.221363" id="svg_16" cy="300.184465" cx="299.940263" stroke-width="16" fill="#fff"/>
   <ellipse stroke="#000" ry="241.162465" rx="237.780109" id="svg_45" cy="300.155435" cx="299.940458" stroke-width="12" fill="#fff"/>
   <g stroke="null" transform="matrix(2.5716612556864464,0,0,1.91331853708197,-934.8787244185912,-195.7252247872583) " id="svg_21"/>
   <g stroke="null" transform="matrix(2.7574079344691254,0,0,2.512974507402922,-1008.7259176385326,-365.5805832030826) " id="svg_28"/>
   <g stroke="null" transform="matrix(2.7574079344691254,0,0,2.512974507402922,-1008.7259176385326,-365.5805832030826) " id="svg_29"/>
   <g stroke="null" transform="matrix(2.7574079344691254,0,0,2.512974507402922,-1008.7259176385326,-365.5805832030826) " id="svg_30"/>
   <g stroke="null" transform="matrix(2.7574079344691254,0,0,2.512974507402922,-1008.7259176385326,-365.5805832030826) " id="svg_31"/>
   <g stroke="null" transform="matrix(2.7574079344691254,0,0,2.512974507402922,-1008.7259176385326,-365.5805832030826) " id="svg_32"/>
   <g stroke="null" transform="matrix(2.7574079344691254,0,0,2.512974507402922,-1008.7259176385326,-365.5805832030826) " id="svg_33"/>
   <g stroke="null" transform="matrix(2.7574079344691254,0,0,2.512974507402922,-1008.7259176385326,-365.5805832030826) " id="svg_34"/>
   <g stroke="null" transform="matrix(2.7574079344691254,0,0,2.512974507402922,-1008.7259176385326,-365.5805832030826) " id="svg_35"/>
   <g stroke="null" transform="matrix(2.7574079344691254,0,0,2.512974507402922,-1008.7259176385326,-365.5805832030826) " id="svg_36"/>
   <g stroke="null" transform="matrix(2.7574079344691254,0,0,2.512974507402922,-1008.7259176385326,-365.5805832030826) " id="svg_37"/>
   <g stroke="null" transform="matrix(2.7574079344691254,0,0,2.512974507402922,-1008.7259176385326,-365.5805832030826) " id="svg_38"/>
   <g stroke="null" transform="matrix(2.7574079344691254,0,0,2.512974507402922,-1008.7259176385326,-365.5805832030826) " id="svg_39"/>
   <g stroke="null" transform="matrix(2.7574079344691254,0,0,2.512974507402922,-1008.7259176385326,-365.5805832030826) " id="svg_40"/>
   <g stroke="null" transform="matrix(2.7574079344691254,0,0,2.512974507402922,-1008.7259176385326,-365.5805832030826) " id="svg_41"/>
   <g stroke="null" transform="matrix(2.7574079344691254,0,0,2.512974507402922,-1008.7259176385326,-365.5805832030826) " id="svg_42"/>
   <path stroke="null" id="svg_12" d="m257.281637,438.788251c0.40143,0 0.808435,-0.044603 1.21544,-0.13381c31.289225,-6.72395 55.949282,-30.48079 62.812617,-60.526697c0.81401,-3.495785 -1.209865,-7.06405 -4.477058,-7.967267c-3.267193,-0.886491 -6.712799,1.326949 -7.510083,4.828309c-5.753827,25.083789 -26.656055,44.993593 -53.256357,50.708392c-3.306221,0.702502 -5.480632,4.175985 -4.83946,7.74425c0.551966,3.088779 3.116657,5.346822 6.0549,5.346822zm101.656527,-71.343c0.518514,0 1.042602,-0.066905 1.533239,-0.178413c24.002158,-5.664621 42.852634,-25.440615 48.060071,-50.412895a6.567838,6.567838 0 0 0 -5.129381,-7.80558a6.707223,6.707223 0 0 0 -7.822306,5.123806c-4.148108,19.959983 -19.118095,35.738405 -38.146984,40.232189a6.578989,6.578989 0 0 0 -4.928666,7.950541c0.719228,2.988422 3.373126,5.090353 6.434028,5.090353z"/>
   <path stroke="null" id="svg_13" d="m344.269241,124.814379a6.590155,6.590155 0 0 0 -11.00587,0c-0.256438,0.379115 -26.945958,40.499799 -50.061627,83.41935a6.578986,6.578986 0 0 0 2.670605,8.954108c3.122229,1.672646 7.281507,0.434871 8.959693,-2.65948c16.687238,-30.976974 35.537704,-60.911401 43.923139,-73.963448c19.552942,30.363713 77.096801,122.954607 77.096801,159.75792a76.829195,76.829195 0 0 1 -59.032488,74.97262a6.612448,6.612448 0 0 0 -4.889631,7.967274a6.590155,6.590155 0 0 0 7.978442,4.878463a90.015045,90.015045 0 0 0 69.190867,-87.818357c0.005584,-47.747844 -81.373173,-170.317751 -84.829931,-175.50845zm-34.065784,232.606271c-0.172805,3.635191 2.648312,6.372719 6.266794,6.372719l0.724769,0c3.389879,0 6.0549,-2.352829 6.227749,-5.709245c0.04463,-1.059343 0.384699,-9.913066 -4.103479,-16.308079c-2.040637,-2.865747 -6.344843,-3.607314 -9.221759,-1.577845a6.618032,6.618032 0 0 0 -1.583429,9.21059c1.321408,1.873328 1.800864,5.692492 1.689355,8.01186z"/>
   <path stroke="null" id="svg_11" d="m251.566838,187.911338c-2.219015,0 -4.276343,1.109507 -5.508509,2.960545c-3.451181,5.196286 -84.813201,127.766192 -84.813201,175.51404c0,49.805175 40.522111,90.31056 90.32171,90.31056c49.810751,0 90.327286,-40.505384 90.327286,-90.31056c0,-47.747847 -81.367595,-170.317754 -84.835503,-175.51404a6.578989,6.578989 0 0 0 -5.491783,-2.960545zm0,255.571412c-42.518109,0 -77.102403,-34.584294 -77.102403,-77.096828c0,-36.781008 57.566152,-129.388638 77.102403,-159.752344c19.547402,30.363706 77.096828,122.95461 77.096828,159.752344c0,42.512533 -34.573144,77.096828 -77.096828,77.096828z"/>
  </g>
 </g>
</svg>